{"glyphs":{"0":{"ha":769,"x_min":22,"x_max":728,"o":"m 199 1077 q 239 1116 199 1077 q 375 1154 279 1154 q 551 1077 471 1154 q 679 867 632 1000 q 726 578 726 735 q 642 160 726 319 q 421 1 558 1 q 414 3 419 1 q 407 1 410 1 q 390 9 397 1 q 382 26 382 17 l 381 139 q 384 151 381 146 q 393 160 388 157 q 406 164 399 164 q 411 163 407 164 q 417 164 417 164 q 478 183 450 164 q 527 236 507 203 q 561 315 547 269 q 582 409 575 360 q 590 511 589 458 q 615 536 590 533 q 633 528 626 536 q 640 510 640 521 q 581 231 638 338 q 431 117 524 125 l 432 53 q 541 103 493 57 q 618 224 589 150 q 662 389 647 299 q 676 578 676 479 q 636 842 676 721 q 526 1034 596 964 q 375 1104 457 1104 q 224 1034 293 1104 q 114 842 154 964 q 74 578 74 721 q 145 199 74 346 q 329 53 217 53 q 347 45 340 53 q 354 27 354 38 q 347 9 354 17 q 329 1 340 1 q 108 160 192 1 q 24 578 24 319 q 71 867 24 735 q 199 1077 118 1000 z "},"1":{"ha":481,"x_min":82,"x_max":397,"o":"m 353 1009 q 357 1013 353 1009 q 372 1017 361 1017 q 389 1009 382 1017 q 396 992 396 1001 l 396 25 q 389 8 396 15 q 371 0 382 0 l 261 0 q 244 8 251 0 q 236 25 236 15 l 236 1139 q 244 1158 236 1150 q 262 1165 251 1165 q 279 1158 272 1165 q 286 1139 286 1150 l 286 50 l 346 50 l 346 990 q 353 1009 346 1001 m 190 1135 q 210 1136 200 1139 q 225 1124 219 1133 q 228 1106 231 1115 q 215 1090 225 1096 l 122 1038 q 110 1033 117 1033 q 88 1046 94 1033 q 85 1065 82 1056 q 97 1081 88 1075 l 190 1135 z "},"2":{"ha":833,"x_min":75,"x_max":750,"o":"m 128 757 q 118 756 122 756 q 100 765 108 756 q 88 783 88 772 q 113 965 76 882 q 226 1103 149 1049 q 390 1163 300 1154 q 556 1136 479 1172 q 692 1004 642 1094 q 749 788 742 914 q 743 770 750 778 q 726 762 736 763 q 708 768 715 761 q 699 785 700 775 q 650 976 693 897 q 533 1090 607 1056 q 394 1113 469 1121 q 254 1061 318 1106 q 164 954 194 1018 q 135 814 133 890 l 217 844 q 301 1025 211 961 q 401 1063 347 1058 q 503 1046 456 1068 q 538 1024 521 1038 q 574 985 554 1010 q 606 923 593 961 q 621 836 618 885 q 614 817 621 825 q 597 810 607 810 q 578 816 586 810 q 571 833 571 822 q 481 1000 563 961 q 406 1013 446 1017 q 331 985 365 1008 q 267 838 257 932 q 265 826 267 832 q 249 803 265 808 l 128 757 m 721 65 q 738 58 731 65 q 746 40 746 50 q 738 22 746 29 q 721 15 731 15 l 139 15 q 126 19 132 15 q 117 28 121 22 q 114 40 114 33 q 122 58 114 50 q 139 65 129 65 l 721 65 m 705 739 q 709 742 705 739 q 723 746 713 746 q 740 739 733 746 q 747 721 747 732 q 737 660 747 690 q 702 600 726 629 q 656 548 678 571 q 592 495 633 525 q 525 448 550 465 q 451 400 500 431 q 369 347 397 365 q 299 294 342 328 q 234 237 256 261 q 195 181 213 213 q 178 121 178 150 q 171 103 178 110 q 153 96 164 96 q 135 103 143 96 q 128 121 128 110 q 134 167 128 144 q 154 213 140 190 q 182 255 168 236 q 222 296 196 274 q 265 333 247 318 q 317 371 283 349 q 369 406 350 393 q 424 442 388 418 q 506 495 478 476 q 576 547 533 514 q 641 605 619 581 q 680 660 663 629 q 697 721 697 692 q 705 739 697 732 z "},"3":{"ha":817,"x_min":42,"x_max":774,"o":"m 574 579 q 718 469 663 544 q 774 299 774 393 q 679 85 774 174 q 453 -3 585 -3 q 435 4 442 -3 q 428 22 428 11 q 435 40 428 32 q 453 47 442 47 q 643 121 564 47 q 722 300 722 194 q 701 397 722 350 q 644 478 681 444 q 557 531 607 511 q 453 551 507 551 q 435 559 442 551 q 428 576 428 567 q 428 577 428 576 q 428 579 428 578 q 428 581 428 581 q 431 594 428 588 q 440 603 435 600 q 453 606 446 606 q 643 680 564 606 q 722 858 722 754 q 643 1036 722 963 q 453 1110 564 1110 q 435 1117 442 1110 q 428 1135 428 1125 q 435 1153 428 1146 q 453 1160 442 1160 q 679 1072 585 1160 q 774 858 774 983 q 718 690 774 765 q 574 579 663 614 m 364 1160 q 381 1153 374 1160 q 389 1135 389 1146 q 381 1117 389 1125 q 364 1110 374 1110 q 179 1042 257 1110 q 94 875 101 974 l 136 867 q 210 1005 146 949 q 363 1061 275 1061 q 372 1059 368 1061 q 380 1053 376 1057 q 385 1046 383 1050 q 388 1036 388 1042 q 380 1019 388 1026 q 363 1011 372 1011 q 237 963 289 1011 q 185 846 185 914 q 171 824 185 831 q 151 813 163 813 q 147 814 149 813 l 69 829 q 58 835 64 831 q 43 858 43 842 q 137 1072 43 983 q 364 1160 231 1160 m 364 47 q 381 40 374 47 q 389 23 389 33 q 381 5 389 13 q 364 -3 374 -3 q 203 38 276 -3 q 86 148 129 78 q 43 300 43 218 q 50 317 43 310 q 67 325 57 325 q 85 317 78 325 q 93 300 93 310 q 172 122 93 196 q 364 47 251 47 z "},"4":{"ha":749,"x_min":82,"x_max":664,"o":"m 639 1164 q 656 1156 649 1164 q 664 1139 664 1149 l 664 25 q 656 7 664 14 q 638 0 649 0 q 621 7 628 0 q 614 25 614 14 l 614 1060 l 157 378 l 507 378 l 507 408 l 381 408 q 363 416 371 408 q 356 433 356 424 q 359 446 356 440 q 368 455 363 451 q 381 458 374 458 l 532 458 q 550 451 543 458 q 557 433 557 444 l 557 354 q 550 335 557 343 q 532 328 543 328 l 115 328 q 114 328 115 328 q 112 329 113 329 q 110 328 111 329 q 110 328 110 328 q 96 332 101 328 q 85 349 88 339 q 89 368 83 358 l 613 1149 q 615 1151 614 1150 q 618 1151 617 1151 q 639 1164 625 1164 z "},"5":{"ha":836,"x_min":83,"x_max":767,"o":"m 206 1018 q 188 1025 196 1018 q 181 1042 181 1032 q 188 1060 181 1053 q 206 1068 196 1068 l 688 1068 q 696 1069 693 1069 q 713 1062 706 1069 q 721 1044 721 1054 l 721 931 q 713 913 721 921 q 696 906 706 906 l 469 906 q 451 913 458 906 q 444 931 444 921 q 451 949 444 942 q 469 956 458 956 l 671 956 l 671 1018 l 206 1018 m 139 528 q 123 538 129 529 q 118 557 117 546 l 185 963 q 194 978 186 972 q 213 983 203 985 q 230 973 224 982 q 233 954 236 964 l 168 549 q 143 528 164 528 q 139 528 140 528 m 579 658 q 719 501 671 601 q 747 326 767 400 q 724 308 743 308 q 717 308 719 308 q 701 320 707 311 q 699 339 696 329 q 693 428 708 376 q 640 533 678 481 q 553 617 603 585 q 226 568 397 713 q 208 562 218 561 q 191 571 197 563 q 185 590 185 579 q 194 606 186 600 q 316 683 256 658 q 426 703 376 707 q 512 689 476 700 q 579 658 547 678 m 703 297 q 708 300 703 297 q 723 300 713 303 q 738 288 733 297 q 740 269 743 279 q 685 149 721 200 q 603 68 649 97 q 510 26 558 39 q 413 13 463 13 q 372 14 392 13 q 175 97 261 26 q 85 275 89 168 q 88 288 85 282 q 96 297 90 293 q 108 301 101 300 q 126 294 118 301 q 135 276 135 288 q 211 133 139 190 q 378 64 283 75 q 501 74 442 57 q 615 144 561 90 q 692 282 668 197 q 703 297 694 292 z "},"6":{"ha":865,"x_min":76,"x_max":782,"o":"m 723 297 q 727 300 723 297 q 742 300 732 303 q 757 288 751 297 q 760 269 763 279 q 704 149 740 200 q 622 68 668 97 q 528 26 576 39 q 431 13 481 13 q 390 14 410 13 q 194 97 279 26 q 103 275 108 168 q 106 288 103 282 q 114 297 108 293 q 126 301 119 300 q 145 294 138 301 q 153 276 153 288 q 229 133 157 190 q 396 64 301 75 q 520 74 461 57 q 633 144 579 90 q 711 282 688 197 q 723 297 714 292 m 408 706 q 499 702 454 710 q 583 676 543 694 q 654 628 622 657 q 760 343 763 528 q 752 326 760 333 q 735 318 744 318 q 717 326 724 319 q 710 344 710 333 q 621 590 713 507 q 413 656 538 668 q 210 550 286 643 q 153 346 140 465 q 147 328 154 336 q 131 318 140 319 q 128 318 129 318 q 117 322 122 318 q 108 330 111 325 q 103 342 104 335 q 171 582 89 481 q 276 666 214 633 q 408 706 338 699 m 781 853 q 781 851 781 851 q 781 850 781 850 q 778 842 781 846 q 778 840 778 840 q 772 833 776 836 q 772 833 772 833 q 764 828 768 831 l 763 828 l 763 828 l 672 800 q 664 799 668 799 q 650 803 657 799 q 648 806 649 804 q 647 807 647 807 q 640 815 642 814 q 554 944 613 894 q 433 989 496 994 q 407 1013 407 992 q 413 1031 406 1024 q 431 1039 419 1039 q 574 992 506 1043 q 679 854 642 940 l 722 868 q 585 1051 676 996 q 400 1088 494 1106 q 290 1037 340 1075 q 200 936 239 999 q 144 780 161 874 q 139 574 128 686 q 134 556 140 564 q 117 546 128 547 q 114 546 117 546 q 97 552 104 546 q 89 568 90 558 q 97 796 76 692 q 161 969 117 900 q 264 1080 206 1038 q 390 1136 322 1122 q 539 1130 465 1151 q 679 1039 613 1108 q 779 860 746 969 q 781 853 781 857 z "},"7":{"ha":933,"x_min":83,"x_max":856,"o":"m 839 1157 q 846 1126 856 1144 l 310 13 q 308 11 310 13 q 301 3 306 7 q 299 1 299 1 q 288 -1 293 -1 l 151 -1 q 142 0 146 -1 l 140 0 q 139 2 140 1 q 138 3 138 3 q 133 6 133 6 q 130 10 132 7 q 128 14 128 14 q 126 19 128 15 q 126 22 126 21 q 126 23 126 22 q 128 29 126 24 q 128 31 128 29 q 129 33 128 33 l 129 35 l 556 918 q 569 931 560 928 q 588 931 579 935 q 601 917 597 926 q 600 897 604 907 l 192 49 l 271 49 l 783 1111 l 111 1111 q 92 1119 100 1111 q 85 1138 85 1126 q 92 1157 85 1149 q 111 1165 100 1165 l 819 1165 q 835 1160 826 1165 q 836 1159 835 1160 q 838 1158 838 1158 q 839 1157 838 1157 z "},"8":{"ha":885,"x_min":83,"x_max":801,"o":"m 406 1164 q 417 1160 411 1164 q 427 1151 424 1157 q 431 1139 431 1146 q 428 1131 431 1135 q 431 1121 431 1125 l 431 1064 q 423 1047 431 1054 q 406 1039 415 1039 q 269 987 325 1039 q 214 861 214 935 q 269 735 214 788 q 406 683 325 683 q 423 676 415 683 q 431 658 431 668 q 429 654 431 657 q 429 653 429 653 q 431 647 431 649 l 431 590 q 430 589 431 590 q 429 588 429 588 q 430 586 429 588 q 431 585 431 585 l 429 583 l 429 582 q 431 581 431 581 q 423 563 431 569 q 406 556 415 556 q 214 481 293 556 q 135 303 135 407 q 206 134 135 206 q 379 53 276 63 l 379 78 q 225 151 288 86 q 163 303 163 215 q 170 321 163 314 q 188 328 178 328 q 206 321 199 328 q 214 303 214 314 q 269 177 214 229 q 406 125 325 125 q 423 117 415 125 q 431 100 431 110 q 428 90 431 94 q 431 81 431 86 l 431 33 q 430 31 431 32 q 429 29 429 29 q 430 28 429 29 q 431 26 431 26 q 423 8 431 15 q 406 1 415 1 q 178 90 272 1 q 85 303 85 178 q 99 394 85 350 q 140 474 114 438 q 203 538 167 510 q 283 582 240 565 q 140 692 194 617 q 85 861 85 768 q 178 1075 85 986 q 406 1164 272 1164 m 379 1088 l 379 1111 q 206 1031 276 1103 q 135 862 135 960 q 206 692 135 764 q 379 613 276 621 l 379 635 q 225 709 288 644 q 163 861 163 774 q 225 1013 163 949 q 379 1088 288 1078 m 601 582 q 745 472 690 549 q 800 303 800 396 q 706 89 800 178 q 479 0 613 0 q 462 8 469 0 q 454 26 454 15 q 462 44 454 36 q 479 51 469 51 q 671 125 592 51 q 750 303 750 199 q 728 401 750 354 q 671 481 707 447 q 585 535 635 515 q 479 556 535 556 q 462 563 469 556 q 454 581 454 569 q 456 582 456 582 q 455 583 456 582 q 454 585 454 585 q 458 597 454 592 q 467 606 461 603 q 479 610 472 610 q 671 683 592 610 q 750 861 750 757 q 671 1040 750 965 q 479 1114 592 1114 q 462 1121 469 1114 q 454 1138 454 1128 q 462 1156 454 1149 q 479 1164 469 1164 q 640 1124 567 1164 q 757 1013 714 1083 q 800 861 800 943 q 745 692 800 768 q 601 582 690 617 z "},"9":{"ha":776,"x_min":24,"x_max":726,"o":"m 64 850 q 48 862 53 853 q 46 882 43 871 q 109 1012 67 957 q 203 1094 151 1067 q 308 1132 254 1122 q 414 1136 361 1142 q 548 1096 485 1128 q 655 1006 611 1064 q 701 876 699 947 q 696 858 703 865 q 678 850 689 850 q 651 874 653 851 q 575 1019 647 961 q 408 1086 503 1076 q 315 1083 361 1092 q 226 1051 269 1075 q 147 980 182 1026 q 94 868 113 933 q 69 850 89 850 q 64 850 67 850 m 208 482 q 85 609 128 525 q 44 807 43 693 q 53 826 46 818 q 71 832 60 833 q 88 824 81 832 q 96 807 96 817 q 129 635 94 707 q 232 526 164 563 q 382 494 299 489 q 533 546 465 500 q 629 656 599 589 q 651 804 660 724 q 658 822 651 814 q 674 832 664 831 q 693 826 685 833 q 701 810 701 819 q 674 634 711 714 q 561 503 638 554 q 363 444 472 444 q 208 482 278 444 m 715 582 q 715 394 726 482 q 675 243 703 307 q 606 131 647 179 q 517 53 565 82 q 415 14 468 25 q 356 8 386 8 q 226 36 288 8 q 110 129 165 64 q 26 289 56 194 l 26 289 l 26 290 l 25 290 q 25 296 25 290 q 25 300 25 300 q 26 305 25 301 q 28 310 26 308 q 31 313 28 310 q 33 317 33 317 q 38 319 35 318 q 39 320 38 319 q 40 322 40 321 l 118 351 l 119 351 q 119 351 119 351 q 121 351 119 351 q 123 351 121 351 q 125 351 125 351 q 129 353 128 353 q 133 351 131 353 q 139 350 138 350 q 140 349 139 350 q 142 347 142 347 q 146 344 144 346 q 149 340 146 343 q 149 338 149 339 q 151 336 150 338 l 151 336 l 151 335 q 238 190 179 242 q 371 144 296 139 q 390 137 382 143 q 398 120 397 131 q 392 102 399 110 q 374 93 385 94 q 358 93 365 93 q 212 147 278 93 q 113 296 146 201 l 82 283 q 219 99 128 154 q 406 64 311 44 q 515 113 464 75 q 604 214 565 151 q 660 370 643 276 q 665 576 678 464 q 672 595 665 588 q 688 604 678 603 q 707 599 699 606 q 715 582 715 592 z "},"\u0000":{"ha":844,"x_min":0,"x_max":0,"o":""},"\n":{"ha":0,"x_min":0,"x_max":0,"o":""},"\r":{"ha":0,"x_min":0,"x_max":0,"o":""}," ":{"ha":521,"x_min":0,"x_max":0,"o":""},"!":{"ha":219,"x_min":83,"x_max":135,"o":"m 110 1264 q 122 1260 117 1264 q 131 1251 128 1257 q 135 1239 135 1246 l 135 408 q 127 390 135 397 q 109 383 119 383 q 92 390 99 383 q 85 408 85 397 l 85 1239 q 92 1256 85 1249 q 110 1264 99 1264 m 110 299 q 122 295 117 299 q 131 286 128 292 q 135 274 135 281 l 135 124 q 131 111 135 117 q 122 102 128 106 q 110 99 117 99 q 92 106 99 99 q 85 124 85 114 l 85 274 q 92 292 85 285 q 110 299 99 299 z "},"\"":{"ha":493,"x_min":21,"x_max":469,"o":"m 203 1226 q 203 1224 203 1226 q 203 1221 203 1222 q 203 1196 204 1211 q 200 1143 203 1181 q 188 1071 197 1106 q 163 999 178 1036 q 121 932 149 961 q 57 889 93 903 q 49 888 53 888 q 25 904 31 888 q 26 923 21 914 q 40 936 31 932 q 98 983 74 949 q 133 1060 122 1017 q 147 1136 143 1104 q 153 1199 151 1168 l 54 1199 q 36 1206 43 1199 q 29 1224 29 1214 q 36 1242 29 1235 q 54 1249 43 1249 l 178 1249 q 194 1242 188 1249 q 203 1226 201 1236 m 469 1221 q 469 1186 469 1207 q 461 1116 468 1165 q 440 1026 454 1067 q 396 944 426 985 q 322 889 365 904 q 314 888 318 888 q 290 904 296 888 q 289 914 289 908 q 291 924 289 919 q 297 931 293 928 q 306 936 300 935 q 364 983 340 949 q 399 1060 388 1017 q 414 1136 410 1104 q 418 1199 418 1168 l 319 1199 q 301 1206 308 1199 q 294 1224 294 1214 q 301 1242 294 1235 q 319 1249 308 1249 l 443 1249 q 460 1242 453 1249 q 468 1226 467 1236 q 469 1221 469 1222 z "},"#":{"ha":906,"x_min":11,"x_max":885,"o":"m 858 850 q 871 847 865 850 q 880 838 876 843 q 883 825 883 832 q 876 808 883 815 q 858 800 869 800 l 682 800 l 600 499 l 767 499 q 785 492 778 499 q 792 474 792 485 q 785 456 792 464 q 767 449 778 449 l 588 449 l 490 89 q 467 71 486 71 q 460 71 463 71 q 445 83 450 74 q 442 101 440 92 l 535 449 l 303 449 l 207 89 q 182 71 201 71 q 176 71 179 71 q 161 83 167 74 q 158 101 156 92 l 251 449 l 38 449 q 19 456 26 449 q 13 474 13 464 q 19 492 13 485 q 38 499 26 499 l 265 499 l 346 800 l 129 800 q 119 802 124 800 q 111 808 114 804 q 106 815 108 811 q 104 825 104 819 q 111 843 104 836 q 129 850 118 850 l 358 850 l 460 1229 q 472 1244 463 1239 q 491 1246 481 1249 q 506 1234 501 1243 q 508 1215 511 1225 l 411 850 l 643 850 l 744 1229 q 756 1244 747 1239 q 775 1246 765 1249 q 790 1234 785 1243 q 793 1215 796 1225 l 694 850 l 858 850 m 549 499 l 629 800 l 397 800 l 317 499 l 549 499 z "},"$":{"ha":736,"x_min":8,"x_max":718,"o":"m 710 385 q 694 247 717 313 q 628 134 672 181 q 527 57 585 88 q 407 18 469 26 q 401 17 404 17 q 395 17 399 17 q 390 17 392 17 l 390 -156 q 383 -173 390 -165 q 365 -181 375 -181 q 347 -173 354 -181 q 339 -156 339 -165 l 339 15 q 238 40 286 19 q 144 102 189 61 q 65 212 99 143 q 15 371 31 281 q 20 389 14 381 q 36 399 26 397 q 49 398 43 400 q 60 390 56 396 q 65 379 64 385 q 167 149 92 225 q 339 65 242 74 l 339 569 q 266 581 293 576 q 199 594 239 585 q 134 614 158 603 q 84 641 110 625 q 44 681 58 657 q 24 735 29 704 q 28 753 22 744 q 44 763 33 761 q 63 759 54 765 q 74 743 71 753 q 86 710 76 725 q 109 684 96 694 q 144 665 122 674 q 184 649 165 656 q 233 638 203 643 q 284 628 263 632 q 339 621 306 625 l 339 1122 q 331 1122 338 1122 q 319 1119 324 1121 q 132 1014 210 1101 q 67 803 54 926 q 61 785 68 793 q 44 776 54 776 q 42 775 43 775 q 25 782 32 775 q 17 799 18 789 q 32 938 10 872 q 97 1051 54 1004 q 196 1128 140 1097 q 311 1169 251 1158 q 339 1174 325 1172 l 339 1264 q 347 1283 339 1275 q 365 1290 354 1290 q 383 1283 375 1290 q 390 1264 390 1275 l 390 1174 q 488 1153 440 1171 q 578 1101 535 1135 q 657 1008 622 1067 q 711 871 692 949 q 708 851 714 860 q 692 840 703 843 q 673 843 682 838 q 663 858 664 849 q 556 1053 631 990 q 389 1122 482 1117 l 389 614 q 475 600 440 607 q 552 580 510 593 q 622 549 594 567 q 671 503 649 532 q 701 439 693 475 q 701 428 703 433 q 698 419 700 424 q 692 413 696 415 q 682 408 688 410 q 676 408 679 408 q 653 428 657 408 q 622 485 644 461 q 559 524 599 510 q 482 547 519 539 q 390 563 444 556 l 390 67 q 394 67 390 67 q 400 67 399 67 q 593 171 514 83 q 660 381 672 258 q 665 399 658 390 q 682 408 672 407 q 700 402 692 408 q 710 385 708 396 z "},"%":{"ha":1349,"x_min":17,"x_max":1326,"o":"m 263 1047 q 124 987 181 1044 q 68 847 68 929 q 124 708 68 765 q 263 647 181 650 q 279 640 272 647 q 286 622 286 632 q 278 604 286 611 q 261 597 271 597 l 260 597 q 88 673 158 600 q 18 848 18 746 q 88 1022 18 950 q 261 1097 158 1094 q 278 1091 269 1099 q 286 1073 286 1083 q 279 1055 286 1063 q 263 1047 272 1047 m 565 847 q 533 724 565 781 q 445 633 501 667 q 322 597 389 600 l 321 597 q 309 601 315 597 q 300 610 303 604 q 297 622 297 615 q 299 635 296 629 q 308 644 303 640 q 321 647 314 647 q 459 708 403 650 q 515 847 515 765 q 459 987 515 929 q 321 1047 403 1044 q 303 1055 310 1047 q 297 1073 296 1063 q 304 1091 297 1083 q 322 1097 311 1099 q 494 1022 424 1094 q 565 847 565 950 m 1022 504 q 884 444 940 503 q 828 305 828 386 q 884 165 828 224 q 1022 104 940 107 q 1040 97 1032 104 q 1046 79 1047 89 q 1042 67 1046 72 q 1033 58 1039 61 q 1021 54 1028 54 q 848 131 918 58 q 778 305 778 203 q 848 479 778 407 q 1021 554 918 551 q 1038 547 1031 554 q 1047 530 1046 540 q 1040 512 1047 519 q 1022 504 1032 504 m 1082 554 q 1255 479 1185 551 q 1325 305 1325 407 q 1255 131 1325 203 q 1082 54 1185 58 q 1065 62 1072 54 q 1057 79 1057 69 q 1060 92 1057 86 q 1068 101 1063 97 q 1081 104 1074 104 q 1219 165 1163 107 q 1275 305 1275 224 q 1219 444 1275 386 q 1081 504 1163 503 q 1064 512 1071 504 q 1057 530 1057 519 q 1065 548 1057 540 q 1082 554 1072 556 m 968 1117 q 973 1119 968 1117 q 987 1116 978 1121 q 999 1101 996 1111 q 997 1082 1001 1090 l 438 42 q 415 29 431 29 q 403 32 408 29 q 391 47 394 38 q 393 67 388 57 l 953 1106 q 968 1117 958 1114 z "},"&":{"ha":892,"x_min":10,"x_max":867,"o":"m 281 610 q 260 621 267 610 q 182 764 208 697 q 153 874 156 831 q 163 954 151 918 q 190 1008 175 990 q 224 1039 206 1025 q 396 1073 294 1089 q 549 988 497 1057 q 567 957 560 974 q 581 914 575 940 q 579 856 586 888 q 555 789 572 825 q 499 708 538 753 q 401 618 460 664 q 383 613 393 611 q 366 622 372 614 q 361 641 360 631 q 371 657 363 651 q 515 822 479 743 q 510 958 551 901 q 388 1024 469 1011 q 253 997 307 1036 q 206 863 193 954 q 301 649 218 772 q 305 630 307 640 q 294 614 303 619 q 281 610 289 610 m 844 81 q 860 70 854 79 q 864 51 865 61 q 839 32 858 32 q 833 32 836 32 q 721 98 789 43 q 591 217 653 153 q 460 364 529 282 q 358 486 390 446 q 303 558 326 526 q 297 576 296 567 q 307 593 299 586 q 326 598 315 600 q 343 588 336 596 q 448 455 388 528 q 585 297 508 382 q 732 151 661 213 q 844 81 803 90 m 568 178 q 585 185 575 185 q 603 178 596 186 q 611 160 611 171 q 604 143 611 150 q 321 8 478 8 q 211 28 264 8 q 72 126 125 58 q 13 275 18 193 q 18 341 11 307 q 47 419 25 375 q 122 510 69 464 q 250 594 174 556 q 268 597 258 600 q 283 584 278 593 q 285 565 288 575 q 272 550 282 554 q 113 426 167 496 q 63 278 58 356 q 113 156 67 213 q 228 75 158 100 q 404 70 315 43 q 568 178 493 97 m 664 247 q 649 253 656 247 q 639 269 640 258 q 644 288 638 279 l 651 296 q 685 343 672 324 q 710 399 699 363 q 713 464 722 435 q 715 483 710 474 q 729 496 719 493 q 749 494 740 499 q 761 479 758 489 q 768 446 767 463 q 767 413 769 429 q 760 383 764 397 q 749 354 757 369 q 735 328 740 339 q 719 304 729 318 q 704 283 710 290 q 690 265 699 276 l 683 257 q 664 247 676 247 z "},"'":{"ha":229,"x_min":22,"x_max":206,"o":"m 204 1221 q 205 1186 206 1207 q 197 1116 204 1165 q 176 1026 190 1067 q 132 944 163 985 q 58 889 101 904 q 50 888 54 888 q 26 904 32 888 q 27 923 22 914 q 42 936 32 932 q 99 983 75 949 q 134 1060 124 1017 q 149 1136 144 1104 q 154 1199 153 1168 l 56 1199 q 38 1206 44 1199 q 31 1224 31 1214 q 38 1242 31 1235 q 56 1249 44 1249 l 179 1249 q 196 1242 189 1249 q 204 1225 203 1235 q 204 1224 204 1225 q 204 1221 204 1222 z "},"(":{"ha":479,"x_min":22,"x_max":457,"o":"m 431 47 q 449 40 442 47 q 456 23 456 33 q 449 5 456 13 q 431 -3 442 -3 q 224 99 318 -3 q 77 376 131 200 q 24 763 24 551 q 56 1063 24 921 q 142 1307 88 1206 q 271 1468 196 1408 q 431 1528 346 1528 q 449 1521 442 1528 q 456 1503 456 1514 q 449 1485 456 1493 q 431 1478 442 1478 q 251 1382 333 1478 q 122 1122 169 1286 q 74 763 74 957 q 122 403 74 568 q 251 143 169 239 q 431 47 333 47 z "},")":{"ha":488,"x_min":26,"x_max":461,"o":"m 53 1533 q 259 1433 165 1533 q 406 1156 353 1332 q 460 768 460 979 q 406 381 460 557 q 259 104 353 206 q 53 3 165 3 q 35 10 42 3 q 28 28 28 18 q 35 46 28 39 q 53 53 42 53 q 232 149 150 53 q 362 409 314 244 q 410 768 410 574 q 362 1127 410 963 q 232 1388 314 1292 q 53 1483 150 1483 q 35 1491 42 1483 q 28 1509 28 1499 q 35 1526 28 1519 q 53 1533 42 1533 z "},"*":{"ha":532,"x_min":14,"x_max":513,"o":"m 486 960 q 504 953 497 960 q 511 935 511 946 q 504 917 511 925 q 486 910 497 910 l 339 910 l 457 821 q 467 804 465 814 q 461 786 468 794 q 442 775 454 775 q 426 781 433 775 l 289 885 l 289 713 q 285 699 289 706 q 276 690 282 693 q 264 686 269 686 q 246 694 253 686 q 239 713 239 701 l 239 885 l 100 781 q 85 775 93 775 q 65 786 72 775 q 60 804 58 794 q 69 821 61 814 l 189 910 l 40 910 q 22 917 29 910 q 15 935 15 925 q 22 953 15 946 q 40 960 29 960 l 189 960 l 69 1050 q 60 1066 61 1056 q 65 1085 58 1076 q 81 1094 71 1093 q 100 1089 92 1096 l 239 985 l 239 1158 q 246 1176 239 1169 q 263 1183 253 1183 q 281 1176 274 1183 q 289 1158 289 1168 l 289 985 l 426 1089 q 445 1094 435 1096 q 462 1085 456 1093 q 467 1066 468 1076 q 457 1050 465 1056 l 339 960 l 486 960 z "},"+":{"ha":1010,"x_min":28,"x_max":976,"o":"m 951 469 q 969 463 961 469 q 976 445 976 456 q 969 427 976 435 q 951 419 961 419 l 549 419 q 531 427 539 419 q 524 445 524 435 q 531 463 524 456 q 549 469 539 469 l 951 469 m 464 469 q 482 463 475 469 q 489 445 489 456 q 482 427 489 435 q 464 419 475 419 l 54 419 q 36 427 43 419 q 29 445 29 435 q 36 463 29 456 q 54 469 43 469 l 464 469 m 510 496 q 498 499 504 496 q 488 508 492 503 q 485 521 485 514 l 485 818 q 492 835 485 828 q 510 843 500 843 q 528 835 521 843 q 536 818 536 828 l 536 521 q 528 503 536 510 q 510 496 521 496 m 510 393 q 528 386 521 393 q 536 368 536 379 l 536 72 q 528 54 536 61 q 510 47 521 47 q 492 54 500 47 q 485 72 485 61 l 485 368 q 488 381 485 375 q 498 390 492 388 q 510 393 504 393 z "},",":{"ha":249,"x_min":32,"x_max":217,"o":"m 214 228 q 215 213 215 226 q 213 180 214 200 q 208 133 213 160 q 199 79 204 107 q 181 23 193 51 q 155 -30 169 -6 q 118 -74 140 -54 q 68 -104 96 -94 q 60 -106 64 -106 q 36 -89 42 -106 q 37 -69 32 -79 q 51 -57 42 -60 q 100 -21 79 -47 q 133 34 121 6 q 151 99 144 63 q 161 159 158 135 q 164 206 164 183 l 65 206 q 47 213 54 206 q 40 231 40 221 q 47 249 40 242 q 65 256 54 256 l 189 256 q 206 249 199 256 q 214 232 214 242 q 214 230 214 231 q 214 228 214 229 z "},"-":{"ha":463,"x_min":18,"x_max":439,"o":"m 414 511 q 431 503 424 511 q 439 485 439 496 q 431 468 439 475 q 414 461 424 461 l 44 461 q 26 468 33 461 q 19 486 19 475 q 23 499 19 493 q 32 508 26 504 q 44 511 38 511 l 414 511 z "},".":{"ha":229,"x_min":14,"x_max":214,"o":"m 114 199 q 185 169 156 199 q 214 99 214 140 q 185 29 214 58 q 114 0 156 0 q 65 13 88 0 q 28 49 42 26 q 15 99 15 72 q 28 149 15 126 q 65 185 42 172 q 114 199 88 199 m 80 65 q 87 57 80 65 q 115 50 94 50 q 149 65 135 50 q 163 99 163 79 q 149 134 163 119 q 115 149 135 149 q 80 134 94 149 q 65 99 65 119 q 80 65 65 79 z "},"/":{"ha":422,"x_min":24,"x_max":406,"o":"m 366 1210 q 370 1213 366 1210 q 385 1212 375 1215 q 400 1199 394 1208 q 401 1181 406 1190 l 74 47 q 50 29 68 29 q 43 31 46 29 q 31 37 36 32 q 25 48 26 42 q 25 61 24 54 l 354 1194 q 366 1210 357 1204 z "},":":{"ha":239,"x_min":24,"x_max":224,"o":"m 54 283 q 69 298 54 283 q 124 313 83 313 q 194 283 165 313 q 224 213 224 254 q 194 143 224 172 q 124 114 165 114 q 74 127 97 114 q 38 163 51 140 q 25 213 25 186 q 54 283 25 254 m 90 178 q 97 171 90 178 q 124 164 104 164 q 158 178 144 164 q 172 213 172 193 q 158 248 172 233 q 124 263 144 263 q 90 248 104 263 q 75 213 75 233 q 90 178 75 193 m 194 772 q 180 758 194 772 q 124 743 165 743 q 54 772 83 743 q 25 842 25 801 q 54 913 25 883 q 124 942 83 942 q 194 913 165 942 q 224 842 224 883 q 194 772 224 801 m 158 877 q 151 884 158 877 q 124 892 144 892 q 90 877 104 892 q 75 842 75 863 q 90 808 75 822 q 124 793 104 793 q 158 808 144 793 q 172 842 172 822 q 158 877 172 863 z "},";":{"ha":264,"x_min":43,"x_max":225,"o":"m 75 829 q 65 831 69 829 q 57 837 60 833 q 52 844 54 840 q 50 854 50 849 q 57 872 50 864 q 75 879 64 879 l 199 879 q 216 872 208 879 q 224 853 224 864 q 216 836 224 843 q 199 829 208 829 l 75 829 m 224 228 q 224 194 225 215 q 217 123 224 172 q 196 33 210 74 q 151 -48 182 -8 q 78 -104 121 -87 q 69 -106 74 -106 q 46 -89 51 -106 q 44 -76 43 -82 q 50 -65 46 -69 q 61 -57 54 -60 q 110 -21 89 -47 q 142 34 131 6 q 161 99 154 63 q 171 159 168 135 q 174 206 174 183 l 75 206 q 57 213 64 206 q 50 231 50 221 q 57 249 50 242 q 75 256 64 256 l 199 256 q 222 236 218 256 q 224 228 224 231 z "},"<":{"ha":936,"x_min":32,"x_max":896,"o":"m 878 53 q 892 39 888 49 q 892 19 896 29 q 868 4 885 4 q 858 7 864 4 l 49 340 q 33 365 32 347 q 49 390 32 383 l 858 724 q 878 724 868 728 q 892 710 888 719 q 892 692 896 701 q 878 678 888 682 l 121 365 l 878 53 z "},"=":{"ha":950,"x_min":40,"x_max":904,"o":"m 67 571 q 49 578 56 571 q 42 597 42 586 q 49 615 42 607 q 67 622 56 622 l 879 622 q 897 615 889 622 q 904 597 904 607 q 897 578 904 586 q 879 571 889 571 l 67 571 m 879 301 q 897 294 889 301 q 904 276 904 286 q 897 258 904 265 q 879 251 889 251 l 67 251 q 49 258 56 251 q 42 276 42 265 q 49 294 42 286 q 67 301 56 301 l 879 301 z "},">":{"ha":915,"x_min":25,"x_max":890,"o":"m 872 390 q 888 365 889 383 q 872 340 889 347 l 63 6 q 53 4 58 4 q 29 19 36 4 q 28 30 28 25 q 29 39 28 35 q 35 47 31 43 q 43 53 39 50 l 801 365 l 43 678 q 29 692 33 682 q 29 710 25 701 q 43 724 33 719 q 63 724 53 728 l 872 390 z "},"?":{"ha":776,"x_min":8,"x_max":756,"o":"m 358 194 q 362 198 358 194 q 376 201 365 201 q 394 194 386 201 q 401 176 401 188 l 401 28 q 394 9 401 17 q 376 1 386 1 q 358 9 365 1 q 351 28 351 17 l 351 176 q 358 194 351 188 m 524 1113 q 356 1131 449 1146 q 188 1057 263 1115 q 91 940 121 1006 q 72 803 61 874 q 68 785 74 793 q 51 775 63 776 q 47 774 50 774 q 22 796 26 774 q 45 958 10 878 q 157 1097 81 1038 q 350 1181 244 1164 q 543 1158 456 1197 q 749 801 728 1075 q 742 783 749 790 q 725 774 735 775 q 707 781 715 774 q 699 797 699 788 q 524 1113 681 1042 m 699 738 q 702 743 699 738 q 714 750 704 747 q 733 748 724 753 q 744 732 742 743 q 728 649 756 693 q 667 578 700 606 q 567 501 635 551 q 501 451 524 469 q 448 406 478 433 q 406 354 418 378 q 400 311 394 331 q 396 291 401 300 q 381 281 390 282 q 375 279 378 279 q 350 299 356 279 q 353 353 344 325 q 376 401 363 381 q 422 451 390 422 q 475 495 454 479 q 538 542 496 511 q 599 589 578 572 q 650 632 621 606 q 690 680 679 658 q 696 719 701 701 q 699 738 694 729 z "},"@":{"ha":1254,"x_min":21,"x_max":1233,"o":"m 793 397 q 781 403 786 399 q 775 415 776 408 q 775 428 774 421 l 872 803 q 879 813 875 808 q 890 820 883 818 q 903 821 897 822 q 919 809 914 818 q 921 790 924 800 l 824 415 q 800 396 818 396 q 793 397 796 396 m 501 786 q 540 812 519 801 q 594 828 560 822 q 663 828 629 835 q 742 791 697 821 q 828 708 786 761 q 833 690 835 700 q 824 673 832 679 q 805 667 815 667 q 789 676 794 668 q 532 747 656 844 q 456 654 489 714 q 406 532 422 594 q 394 410 390 469 q 424 318 397 351 q 534 291 458 272 q 717 392 610 310 q 735 396 725 397 q 752 386 746 394 q 757 368 758 378 q 747 351 756 358 q 493 236 596 236 q 383 288 424 236 q 345 397 351 328 q 356 538 339 467 q 412 678 374 610 q 501 786 450 747 m 594 50 q 613 43 606 50 q 621 26 621 36 q 613 8 621 15 q 594 0 606 0 q 308 77 440 0 q 99 286 175 154 q 22 574 22 418 q 99 861 22 729 q 308 1069 175 993 q 594 1146 440 1146 q 613 1139 606 1146 q 621 1122 621 1132 q 613 1103 621 1111 q 594 1096 606 1096 q 392 1054 489 1096 q 226 943 296 1013 q 114 776 156 874 q 72 574 72 679 q 142 311 72 432 q 333 120 213 190 q 594 50 453 50 m 660 1146 q 881 1101 775 1146 q 1065 978 988 1056 q 1187 795 1142 901 q 1232 574 1232 689 q 1156 286 1232 418 q 947 77 1079 154 q 660 0 815 0 q 642 8 649 0 q 635 26 635 15 q 642 43 635 36 q 660 50 649 50 q 965 149 829 50 q 1153 403 1100 247 q 1041 278 1101 325 q 924 231 981 232 q 922 231 924 231 q 921 231 921 231 q 776 346 825 231 q 776 365 772 356 q 789 379 779 375 q 808 379 799 383 q 822 365 818 375 q 922 281 861 274 q 1061 363 988 282 q 1178 564 1135 444 q 1182 569 1179 565 q 1182 571 1182 569 q 1182 574 1182 572 q 1140 776 1182 679 q 1029 943 1099 874 q 863 1054 960 1013 q 660 1096 765 1096 q 642 1103 649 1096 q 635 1122 635 1111 q 642 1139 635 1132 q 660 1146 649 1146 z "},"A":{"ha":996,"x_min":31,"x_max":954,"o":"m 949 32 q 949 10 953 21 q 933 -3 944 0 q 924 -6 929 -6 q 899 13 906 -6 l 489 1078 l 85 13 q 60 -6 79 -6 q 51 -3 56 -6 q 35 10 40 0 q 35 31 31 21 l 464 1163 q 464 1164 464 1163 q 468 1168 465 1165 q 469 1170 468 1168 q 470 1172 469 1172 q 472 1174 471 1172 q 474 1175 474 1175 q 479 1178 478 1178 q 482 1179 481 1179 q 483 1179 483 1179 q 489 1181 488 1181 q 494 1179 490 1181 q 497 1179 494 1179 q 499 1179 499 1179 l 499 1178 l 500 1178 q 504 1175 501 1178 q 508 1172 508 1172 q 511 1169 508 1172 q 514 1164 514 1165 q 514 1163 514 1163 l 949 32 m 667 233 l 751 32 q 751 12 756 22 q 738 -3 747 1 q 726 -6 732 -6 q 701 11 708 -6 l 624 196 l 275 196 q 256 204 264 196 q 247 224 247 213 q 256 242 247 235 q 275 250 264 250 l 642 250 q 651 249 647 250 q 658 244 654 247 q 659 243 658 243 q 660 242 660 243 q 667 233 664 239 z "},"B":{"ha":921,"x_min":82,"x_max":892,"o":"m 757 821 q 783 846 757 846 q 797 842 792 846 q 806 833 803 839 q 810 818 810 826 q 725 657 807 726 q 500 558 643 588 q 494 558 497 558 q 468 579 472 558 q 472 600 465 590 q 489 611 478 610 q 682 692 610 636 q 757 821 754 749 m 689 1019 q 654 1048 674 1035 q 599 1079 635 1061 q 522 1109 564 1097 q 422 1132 481 1121 q 294 1142 363 1143 q 138 1135 226 1142 l 138 13 q 130 -7 138 1 q 111 -15 122 -15 q 92 -7 100 -15 q 85 13 85 1 l 85 1153 q 85 1154 85 1154 q 85 1156 85 1154 q 90 1176 83 1167 q 108 1185 97 1185 q 471 1177 310 1210 q 725 1060 632 1144 q 810 881 813 979 q 802 862 810 869 q 783 854 794 854 l 782 854 q 763 863 771 856 q 757 882 756 871 q 689 1019 758 957 m 843 469 q 889 315 886 393 q 853 174 892 236 q 793 106 831 136 q 694 47 756 75 q 534 1 632 18 q 310 -15 436 -15 q 219 -12 265 -15 q 201 -4 208 -12 q 194 15 193 4 q 194 17 194 17 q 194 18 194 18 q 194 19 194 18 q 194 22 194 21 l 194 851 q 202 870 194 863 q 221 878 210 878 q 240 870 232 878 q 247 851 247 863 l 247 40 q 483 49 381 36 q 649 87 586 61 q 749 140 713 113 q 807 201 786 168 q 835 315 838 251 q 796 442 832 379 q 731 521 767 492 q 667 551 694 550 q 648 559 656 551 q 640 578 640 567 q 644 591 640 585 q 653 601 647 597 q 667 606 660 606 l 668 606 q 728 588 697 606 q 790 540 760 571 q 843 469 819 510 z "},"C":{"ha":1094,"x_min":83,"x_max":1071,"o":"m 1027 460 q 1032 463 1027 460 q 1047 463 1036 465 q 1065 451 1058 461 q 1068 431 1071 442 q 902 131 1026 247 q 622 14 778 14 q 603 22 611 14 q 594 40 594 29 q 603 59 594 51 q 622 67 611 67 q 868 172 758 67 q 1015 443 978 276 q 1027 460 1018 454 m 547 1101 q 388 1060 464 1101 q 258 950 313 1019 q 170 785 203 881 q 138 585 138 689 q 192 325 138 444 q 342 136 247 206 q 547 67 436 67 q 567 59 558 67 q 575 40 575 51 q 567 22 575 29 q 547 14 558 14 q 315 90 422 14 q 147 298 208 167 q 85 584 85 429 q 147 871 85 739 q 315 1079 208 1003 q 547 1156 422 1156 q 567 1148 558 1156 q 575 1129 575 1140 q 567 1110 575 1118 q 547 1101 558 1101 m 892 783 q 799 941 861 894 q 606 999 738 988 q 588 1008 594 1000 q 582 1028 581 1017 q 591 1047 582 1039 q 611 1053 600 1054 q 715 1035 669 1047 q 797 1005 760 1024 q 860 958 833 986 q 906 893 886 931 q 940 807 926 856 q 986 818 967 808 q 895 968 951 904 q 769 1067 839 1032 q 622 1101 699 1101 q 603 1110 611 1101 q 594 1129 594 1118 q 603 1148 594 1140 q 622 1156 611 1156 q 872 1065 757 1156 q 1042 824 986 975 l 1043 824 q 1043 822 1043 824 q 1043 819 1043 822 q 1044 818 1043 818 q 1044 817 1044 818 q 1044 814 1044 814 l 1044 813 q 1043 804 1044 808 q 1001 766 1036 779 q 940 753 967 753 q 913 757 924 753 q 894 781 900 764 q 892 781 893 781 q 892 783 892 782 z "},"D":{"ha":972,"x_min":83,"x_max":943,"o":"m 479 1156 q 712 1078 606 1156 q 881 867 818 1000 q 943 576 943 733 q 881 285 943 418 q 712 74 818 151 q 479 -4 606 -4 q 460 3 468 -4 q 453 23 453 11 q 460 42 453 35 q 479 50 468 50 q 685 120 590 50 q 834 312 779 190 q 889 576 889 433 q 834 840 889 718 q 685 1031 779 961 q 479 1101 590 1101 q 460 1110 468 1101 q 453 1129 453 1118 q 460 1148 453 1140 q 479 1156 468 1156 m 406 51 q 424 43 417 51 q 432 24 432 35 q 424 5 432 13 q 406 -3 417 -3 l 211 -3 q 203 -4 206 -4 q 183 3 192 -4 q 175 22 175 11 l 175 597 q 183 617 175 608 q 203 625 192 625 q 222 617 214 625 q 229 597 229 608 l 229 51 l 406 51 m 406 1158 q 424 1151 417 1158 q 432 1132 432 1143 q 424 1113 432 1121 q 406 1104 417 1104 l 138 1104 l 138 24 q 130 3 138 11 q 111 -4 122 -4 q 92 3 100 -4 q 85 24 85 11 l 85 1129 q 96 1150 85 1142 q 115 1158 104 1158 l 406 1158 z "},"E":{"ha":971,"x_min":83,"x_max":888,"o":"m 92 1172 q 96 1176 92 1172 q 111 1181 100 1181 q 130 1172 122 1181 q 138 1153 138 1164 l 138 29 q 130 10 138 18 q 111 1 122 1 q 92 10 100 1 q 85 29 85 18 l 85 1153 q 92 1172 85 1164 m 188 1126 q 169 1135 176 1126 q 161 1154 161 1143 q 169 1173 161 1165 q 188 1181 176 1181 l 860 1181 q 878 1173 871 1181 q 886 1154 886 1165 q 878 1135 886 1143 q 860 1126 871 1126 l 188 1126 m 860 378 l 246 378 l 246 176 l 860 176 q 878 169 871 176 q 886 150 886 161 l 886 28 q 878 9 886 17 q 860 1 871 1 l 188 1 q 169 9 176 1 q 161 28 161 17 q 169 47 161 39 q 188 56 176 56 l 833 56 l 833 122 l 228 122 q 225 124 228 122 q 224 124 224 124 q 222 123 224 124 q 219 122 221 122 q 201 131 208 122 q 193 150 193 139 l 193 397 q 193 399 193 399 q 193 401 193 400 q 193 403 193 401 q 193 404 193 404 q 201 424 193 415 q 219 432 208 432 l 860 432 q 878 424 871 432 q 886 404 886 415 q 878 385 886 393 q 860 378 871 378 z "},"F":{"ha":964,"x_min":83,"x_max":879,"o":"m 192 1126 q 178 1131 183 1126 q 169 1140 172 1135 q 165 1154 165 1146 q 173 1173 165 1165 q 192 1181 181 1181 l 853 1181 q 866 1177 860 1181 q 876 1167 872 1174 q 879 1154 879 1161 q 872 1135 879 1143 q 853 1126 864 1126 l 192 1126 m 853 550 q 872 542 864 550 q 879 524 879 535 l 879 422 q 878 414 879 418 q 879 404 879 408 q 872 385 879 393 q 853 378 864 378 l 239 378 l 239 38 q 238 35 239 38 q 238 33 238 33 q 239 32 238 32 q 239 28 239 29 q 231 9 239 17 q 213 1 224 1 l 111 1 q 92 9 100 1 q 85 28 85 17 l 85 29 l 85 1153 q 92 1172 85 1164 q 111 1181 100 1181 q 130 1172 122 1181 q 138 1153 138 1164 l 138 56 l 185 56 l 185 397 q 185 399 185 399 q 186 401 186 400 l 185 403 l 185 404 q 193 424 185 415 q 213 432 201 432 l 825 432 l 825 496 l 213 496 q 193 504 201 496 q 185 524 185 513 q 193 542 185 535 q 213 550 201 550 l 853 550 z "},"G":{"ha":1006,"x_min":18,"x_max":996,"o":"m 972 408 q 988 397 982 406 q 992 376 994 388 q 837 110 954 206 q 551 14 719 14 q 533 22 540 14 q 525 40 525 29 q 533 59 525 51 q 551 67 540 67 q 791 142 693 67 q 929 356 889 218 l 615 356 l 615 310 l 831 310 q 849 301 842 310 q 857 282 857 293 q 849 263 857 271 q 831 256 842 256 l 589 256 q 570 263 578 256 q 563 282 563 271 q 563 288 563 282 q 563 293 563 293 l 563 382 q 570 401 563 393 q 589 408 578 408 l 964 408 q 972 408 969 408 m 482 1101 q 276 1032 371 1101 q 127 844 182 963 q 72 585 72 725 q 127 325 72 444 q 276 136 182 206 q 482 67 371 67 q 501 59 493 67 q 508 40 508 51 q 501 22 508 29 q 482 14 493 14 q 249 90 356 14 q 81 298 143 167 q 18 584 18 429 q 81 871 18 739 q 249 1079 143 1003 q 482 1156 356 1156 q 501 1148 493 1156 q 508 1129 508 1140 q 501 1110 508 1118 q 482 1101 493 1101 m 551 1101 q 533 1110 540 1101 q 525 1129 525 1118 q 533 1148 525 1140 q 551 1156 540 1156 q 802 1065 688 1156 q 972 822 917 975 q 974 813 975 818 q 972 802 974 807 q 966 794 969 797 q 957 789 963 790 q 947 786 953 786 q 922 804 929 786 q 772 1021 872 940 q 551 1101 671 1101 z "},"H":{"ha":1026,"x_min":83,"x_max":943,"o":"m 897 1172 q 900 1176 897 1172 q 915 1181 904 1181 q 934 1172 926 1181 q 942 1153 942 1164 l 942 29 q 934 10 942 18 q 915 1 926 1 q 904 4 910 1 q 894 1 900 1 l 822 1 q 803 10 811 1 q 796 29 796 18 l 796 354 l 242 354 l 242 29 q 234 10 242 18 q 215 1 226 1 l 111 1 q 92 10 100 1 q 85 29 85 18 l 85 1153 q 86 1161 85 1156 q 85 1168 85 1165 q 92 1187 85 1179 q 111 1194 100 1194 l 215 1194 q 234 1187 226 1194 q 242 1168 242 1179 q 240 1160 242 1165 q 242 1153 242 1156 l 242 581 l 822 581 q 842 572 833 581 q 850 553 850 564 q 842 534 850 542 q 822 526 833 526 l 215 526 q 197 534 204 526 q 189 553 189 542 l 189 1140 l 139 1140 l 139 56 l 189 56 l 189 382 q 197 401 189 393 q 215 408 204 408 l 822 408 q 842 401 833 408 q 850 382 850 393 l 850 56 l 889 56 l 889 1153 q 897 1172 889 1164 z "},"I":{"ha":326,"x_min":83,"x_max":242,"o":"m 242 43 q 234 24 242 32 q 215 17 226 17 l 126 17 q 119 18 124 17 q 111 17 114 17 q 92 24 100 17 q 85 43 85 32 l 85 1153 q 92 1172 85 1164 q 111 1181 100 1181 q 130 1172 122 1181 q 138 1153 138 1164 l 138 71 l 188 71 l 188 1050 q 196 1069 188 1061 q 215 1076 204 1076 q 234 1069 226 1076 q 242 1050 242 1061 l 242 43 z "},"J":{"ha":738,"x_min":76,"x_max":654,"o":"m 644 380 q 640 376 644 380 q 625 372 636 372 q 606 380 614 372 q 599 399 599 388 l 599 1153 q 606 1172 599 1164 q 625 1181 614 1181 q 644 1172 636 1181 q 651 1153 651 1164 l 651 399 q 644 380 651 388 m 626 342 q 645 333 638 342 q 653 314 653 325 q 610 152 651 222 q 496 46 569 82 q 357 14 432 14 q 185 68 258 14 q 101 174 126 110 q 88 318 76 239 l 89 319 q 119 375 89 356 q 200 385 160 404 q 232 338 229 371 q 229 325 232 332 q 271 218 219 256 q 347 192 303 194 q 429 207 390 189 q 501 331 500 243 q 510 351 503 343 q 529 357 518 360 q 548 349 540 357 q 556 329 556 340 q 543 259 556 292 q 508 201 531 226 q 453 160 485 175 q 358 138 410 138 q 239 175 289 138 q 176 335 161 232 q 176 335 176 335 q 176 336 176 335 q 150 332 165 342 q 142 317 140 325 q 142 315 142 317 q 142 313 142 314 q 142 312 142 313 q 142 311 142 311 q 217 111 122 179 q 340 69 268 74 q 472 94 411 64 q 565 181 532 124 q 600 315 599 239 q 608 334 600 326 q 626 342 615 342 z "},"K":{"ha":933,"x_min":83,"x_max":851,"o":"m 844 50 q 848 30 850 40 q 838 13 846 19 q 822 8 831 8 q 800 19 808 8 l 350 658 l 253 565 l 253 29 q 243 8 253 17 q 228 -12 238 -3 q 207 -28 219 -22 q 167 -37 189 -37 q 114 -21 136 -37 q 88 17 94 -7 q 85 29 85 22 l 85 1153 q 92 1172 85 1164 q 111 1181 100 1181 q 130 1172 122 1181 q 138 1153 138 1164 l 138 51 q 139 42 139 46 q 146 22 136 29 q 183 21 163 10 q 199 47 199 28 l 199 576 l 200 576 q 207 596 200 588 l 793 1161 q 813 1168 801 1168 q 831 1160 824 1168 q 839 1140 839 1151 q 831 1122 839 1129 l 389 696 q 390 695 389 696 q 392 693 392 694 l 844 50 z "},"L":{"ha":850,"x_min":83,"x_max":767,"o":"m 739 167 q 752 163 746 167 q 762 152 758 158 q 765 139 765 146 l 765 29 q 758 10 765 18 q 739 3 750 3 l 114 3 q 113 3 114 3 q 111 3 113 3 q 92 10 100 3 q 85 29 85 18 l 85 1153 q 92 1172 85 1164 q 111 1181 100 1181 q 130 1172 122 1181 q 138 1153 138 1164 l 138 57 l 711 57 l 711 113 l 219 113 q 200 120 208 113 q 192 139 192 128 q 200 158 192 150 q 219 167 208 167 l 739 167 z "},"M":{"ha":1269,"x_min":83,"x_max":1186,"o":"m 1140 1172 q 1143 1176 1140 1172 q 1158 1181 1147 1181 q 1177 1172 1169 1181 q 1185 1153 1185 1164 l 1185 29 q 1177 10 1185 18 q 1158 3 1169 3 q 1151 4 1157 3 q 1144 3 1146 3 l 1046 3 q 1039 4 1044 3 q 1032 3 1033 3 q 1013 10 1021 3 q 1006 29 1006 18 l 1006 1042 l 599 21 q 574 4 592 4 q 572 4 572 4 q 570 4 571 4 q 568 4 569 4 q 567 4 567 4 q 542 21 549 4 l 138 1015 l 138 29 q 130 10 138 18 q 111 1 122 1 q 92 10 100 1 q 85 29 85 18 l 85 1153 q 86 1160 85 1156 q 111 1181 92 1181 q 136 1164 129 1181 l 569 94 l 996 1163 q 1026 1179 1004 1183 q 1032 1181 1031 1181 q 1051 1172 1043 1181 q 1060 1153 1060 1164 l 1060 56 l 1132 56 l 1132 1153 q 1140 1172 1132 1164 z "},"N":{"ha":1101,"x_min":83,"x_max":1018,"o":"m 990 1181 q 1003 1176 997 1181 q 1013 1166 1010 1172 q 1017 1153 1017 1160 l 1017 31 q 1009 12 1017 19 q 990 4 1001 4 q 972 12 979 4 q 964 31 964 19 l 964 1126 l 881 1126 l 881 31 q 881 29 881 31 q 881 28 881 28 q 869 6 881 14 q 854 1 863 1 q 832 14 839 1 l 138 1065 l 138 25 q 130 6 138 14 q 111 -3 122 -3 q 92 6 100 -3 q 85 25 85 14 l 85 1149 q 92 1168 85 1160 q 111 1176 100 1176 q 112 1176 111 1176 q 114 1175 113 1175 q 138 1164 129 1176 l 828 118 l 828 1153 q 835 1172 828 1164 q 854 1181 843 1181 q 863 1178 858 1181 q 872 1181 868 1181 l 990 1181 z "},"O":{"ha":1232,"x_min":60,"x_max":1189,"o":"m 583 1013 q 410 956 490 1013 q 285 802 331 900 q 239 589 239 704 q 340 290 239 414 q 583 167 442 167 q 602 158 594 167 q 610 139 610 150 q 602 120 610 128 q 583 113 594 113 q 429 150 503 113 q 302 251 356 188 q 217 404 249 315 q 185 589 185 493 q 296 919 185 781 q 567 1065 407 1057 l 568 1067 l 571 1067 q 576 1069 574 1067 q 582 1079 579 1072 q 585 1096 585 1086 q 581 1115 585 1107 q 572 1124 576 1122 q 394 1077 479 1121 q 249 961 310 1033 q 151 790 188 889 q 114 583 114 692 q 177 312 114 436 q 349 115 240 188 q 583 43 457 43 q 602 35 594 43 q 610 15 610 26 q 602 -3 610 4 q 583 -11 594 -11 q 322 69 442 -11 q 131 285 201 149 q 61 583 61 422 q 128 876 61 742 q 313 1091 196 1011 q 567 1176 429 1171 q 572 1178 571 1178 q 573 1177 572 1178 q 574 1176 574 1176 q 578 1177 575 1176 q 583 1178 582 1178 q 606 1164 599 1178 q 639 1095 639 1140 q 606 1026 639 1050 q 583 1013 599 1013 m 683 1178 q 939 1099 824 1178 q 1121 884 1054 1021 q 1188 583 1188 747 q 1118 285 1188 422 q 928 69 1049 149 q 665 -11 807 -11 q 647 -3 654 -11 q 639 15 639 4 q 647 35 639 26 q 665 43 654 43 q 901 115 793 43 q 1072 312 1008 188 q 1135 583 1135 436 q 1099 795 1135 694 q 1004 967 1064 896 q 860 1081 944 1039 q 683 1124 776 1124 q 665 1131 672 1124 q 657 1150 657 1139 q 660 1165 657 1158 q 670 1174 664 1171 q 683 1178 676 1178 z "},"P":{"ha":932,"x_min":83,"x_max":890,"o":"m 92 1171 q 96 1175 92 1171 q 111 1179 100 1179 q 130 1171 122 1179 q 138 1151 138 1163 l 138 29 q 130 10 138 18 q 111 3 122 3 q 92 10 100 3 q 85 29 85 18 l 85 1151 q 92 1171 85 1163 m 860 769 q 878 761 871 769 q 886 742 886 753 q 775 518 883 610 q 403 407 643 407 q 239 419 325 407 q 221 431 228 422 q 186 503 186 454 q 199 552 186 531 q 235 581 213 574 q 238 582 236 582 q 253 585 250 585 q 268 581 261 585 q 654 615 504 549 q 674 616 664 619 q 690 602 685 613 q 690 581 694 592 q 675 567 686 571 q 404 517 563 517 q 247 528 331 517 q 239 503 239 518 q 244 482 239 490 q 253 474 249 474 q 263 471 258 474 q 456 463 367 457 q 617 492 544 468 q 740 560 689 517 q 833 743 831 635 q 860 769 833 768 m 736 1021 q 505 1127 647 1099 q 192 1131 363 1156 q 172 1135 181 1128 q 161 1153 163 1142 q 166 1173 160 1164 q 183 1183 172 1182 q 338 1197 264 1196 q 468 1188 411 1197 q 574 1166 525 1179 q 660 1133 622 1153 q 724 1097 699 1114 q 771 1061 750 1081 q 886 818 890 956 q 883 805 886 811 q 873 795 879 799 q 860 792 867 792 l 858 792 q 840 800 847 792 q 833 819 832 808 q 736 1021 836 932 z "},"Q":{"ha":1225,"x_min":43,"x_max":1171,"o":"m 840 63 q 849 51 846 57 q 846 31 851 40 q 829 18 840 21 q 593 -18 704 -18 q 271 83 404 -18 q 104 295 164 163 q 44 583 44 428 q 115 881 44 744 q 305 1098 185 1018 q 567 1178 425 1178 q 586 1170 578 1178 q 594 1151 594 1163 q 586 1131 594 1139 q 567 1124 578 1124 q 385 1081 472 1124 q 235 965 299 1038 q 135 793 172 893 q 97 583 97 693 q 148 331 97 458 q 303 126 199 204 q 783 63 488 -12 l 760 117 q 592 93 667 93 q 333 174 440 93 q 193 352 243 240 q 143 594 143 464 q 151 615 143 607 q 169 622 158 622 q 189 614 181 622 q 197 594 197 606 q 238 385 197 490 q 365 217 279 281 q 768 175 519 101 q 783 175 776 176 q 794 168 789 174 q 801 156 800 163 q 803 154 801 156 l 840 65 q 840 64 840 65 q 840 63 840 63 m 1158 -7 q 1169 -24 1168 -14 q 1164 -44 1171 -35 q 1143 -54 1156 -54 q 1126 -49 1133 -54 l 939 94 q 906 69 910 72 q 892 65 899 65 q 869 76 876 65 q 865 97 863 86 q 876 114 867 108 q 1049 313 986 186 q 1113 583 1113 439 q 1049 855 1113 731 q 878 1051 986 979 q 643 1124 771 1124 q 624 1131 632 1124 q 617 1150 617 1139 q 620 1165 617 1158 q 630 1174 624 1171 q 643 1178 636 1178 q 906 1098 785 1178 q 1097 881 1026 1018 q 1167 583 1167 744 q 1117 334 1167 453 q 981 131 1068 215 l 1158 -7 z "},"R":{"ha":974,"x_min":83,"x_max":928,"o":"m 596 425 l 806 21 q 807 0 810 11 q 793 -15 804 -11 q 782 -18 788 -18 q 757 -4 765 -18 l 549 400 q 547 420 543 410 q 560 436 550 431 q 581 438 571 442 q 596 425 592 435 m 92 1171 q 96 1175 92 1171 q 111 1179 100 1179 q 130 1171 122 1179 q 138 1151 138 1163 l 138 29 q 130 10 138 18 q 111 3 122 3 q 92 10 100 3 q 85 29 85 18 l 85 1151 q 92 1171 85 1163 m 195 992 q 199 996 195 992 q 214 1000 203 1000 q 233 992 225 1000 q 242 974 242 985 l 242 29 q 233 10 242 18 q 214 3 225 3 q 195 10 203 3 q 188 29 188 18 l 188 974 q 195 992 188 985 m 921 35 q 923 14 926 25 q 910 -1 919 3 q 897 -6 904 -6 q 874 10 882 -6 l 642 444 q 640 465 636 454 q 653 481 643 475 q 661 483 656 482 q 667 489 664 488 q 774 603 736 538 q 814 743 811 669 q 822 762 814 754 q 840 769 829 769 l 842 769 q 860 761 853 769 q 867 742 868 753 q 822 580 865 656 q 700 447 779 504 l 921 35 m 814 819 q 714 1025 817 936 q 663 1063 692 1046 q 588 1101 635 1081 q 485 1130 540 1121 q 354 1142 431 1139 q 192 1131 278 1146 q 172 1135 181 1128 q 161 1153 163 1142 q 166 1173 160 1164 q 183 1183 172 1182 q 312 1195 250 1193 q 423 1193 374 1197 q 517 1178 472 1189 q 597 1155 563 1168 q 661 1126 631 1142 q 712 1096 692 1110 q 750 1065 732 1082 q 867 818 871 960 q 859 799 867 807 q 840 792 851 792 q 820 800 828 792 q 814 819 813 808 z "},"S":{"ha":974,"x_min":50,"x_max":935,"o":"m 88 801 q 69 808 76 801 q 60 825 61 814 q 78 976 51 904 q 158 1097 106 1047 q 278 1181 211 1147 q 421 1226 346 1215 q 506 1231 463 1231 q 593 1221 549 1232 q 679 1192 638 1210 q 760 1142 721 1175 q 831 1069 799 1110 q 888 969 863 1028 q 926 842 913 911 q 922 822 928 832 q 904 811 915 813 q 894 811 900 810 q 894 810 894 811 q 892 810 893 810 l 804 794 q 799 794 801 794 q 797 795 799 794 q 794 796 796 796 q 793 796 793 796 q 767 818 771 796 q 667 1015 740 950 q 467 1079 593 1079 q 448 1087 456 1079 q 440 1106 440 1094 q 449 1126 440 1118 q 469 1133 457 1133 q 813 851 747 1133 l 867 860 q 811 999 847 939 q 731 1094 775 1060 q 635 1152 688 1129 q 531 1177 582 1175 q 429 1174 479 1179 q 305 1134 364 1163 q 200 1063 246 1106 q 130 959 154 1019 q 114 831 106 899 q 108 811 115 819 q 90 801 101 803 q 88 801 89 801 m 924 371 q 906 220 933 292 q 826 99 879 149 q 706 15 774 49 q 564 -31 639 -18 q 490 -36 528 -36 q 383 -24 435 -36 q 278 18 331 -11 q 184 91 226 47 q 108 202 142 135 q 58 354 75 269 q 63 374 57 365 q 80 385 69 383 q 100 381 90 388 q 111 364 110 375 q 152 235 125 293 q 215 139 179 176 q 292 74 250 101 q 378 34 335 46 q 468 18 422 22 q 556 22 514 14 q 717 81 643 36 q 836 201 792 125 q 871 365 881 276 q 876 385 869 376 q 894 394 883 393 q 900 395 897 396 q 906 394 903 394 q 911 391 908 393 q 916 387 914 389 q 920 383 918 385 q 923 378 922 381 q 924 371 924 375 m 478 626 q 563 617 535 621 q 642 604 592 613 q 721 588 693 596 q 786 564 749 579 q 845 531 824 549 q 886 487 867 513 q 913 431 906 461 q 910 410 915 419 q 893 397 904 400 q 888 397 890 397 q 861 417 867 397 q 839 461 856 442 q 803 494 822 481 q 751 520 785 508 q 692 539 717 532 q 621 553 667 546 q 549 565 575 561 q 472 574 522 568 q 392 583 419 579 q 318 594 365 586 q 244 610 271 603 q 182 632 217 618 q 128 663 147 646 q 92 703 108 679 q 69 754 75 726 q 73 774 67 765 q 90 786 79 783 q 110 783 101 789 q 122 765 119 776 q 140 727 126 744 q 172 698 154 710 q 219 675 189 686 q 274 658 250 664 q 340 646 297 653 q 406 635 382 639 q 478 626 431 632 z "},"T":{"ha":1032,"x_min":57,"x_max":986,"o":"m 958 1181 q 969 1178 964 1181 q 977 1173 974 1176 q 983 1165 981 1169 q 985 1154 985 1160 q 977 1135 985 1143 q 958 1126 969 1126 l 111 1126 l 111 1043 l 526 1043 q 545 1035 538 1043 q 553 1017 553 1028 l 553 29 q 549 16 553 22 q 540 6 546 10 q 526 3 533 3 q 506 10 514 3 q 499 29 499 18 l 499 990 l 85 990 q 66 998 74 990 q 58 1017 58 1006 l 58 1154 q 66 1173 58 1165 q 85 1181 74 1181 l 958 1181 m 609 519 q 613 523 609 519 q 628 526 617 526 q 647 519 639 526 q 654 500 654 511 l 654 29 q 647 10 654 18 q 628 3 639 3 q 609 10 617 3 q 601 29 601 18 l 601 500 q 609 519 601 511 z "},"U":{"ha":938,"x_min":83,"x_max":854,"o":"m 808 1173 q 811 1177 808 1173 q 826 1181 815 1181 q 846 1173 838 1181 q 854 1154 854 1165 l 854 450 q 846 431 854 439 q 826 424 838 424 q 808 431 815 424 q 800 450 800 439 l 800 1154 q 808 1173 800 1165 m 132 431 q 128 427 132 431 q 113 424 124 424 q 94 431 101 424 q 86 450 86 439 l 86 1154 q 94 1173 86 1165 q 113 1181 101 1181 l 188 1181 q 190 1181 189 1181 q 191 1181 190 1181 q 192 1181 192 1181 q 194 1181 193 1181 q 213 1173 206 1181 q 221 1154 221 1165 l 221 676 q 213 658 221 665 q 194 650 206 650 q 175 658 183 650 q 167 676 167 665 l 167 1128 l 140 1128 l 140 450 q 132 431 140 439 m 808 413 q 811 417 808 413 q 826 421 815 421 q 845 413 838 421 q 853 394 853 406 q 740 112 853 229 q 469 -6 628 -6 q 197 112 310 -6 q 85 394 85 229 q 92 413 85 406 q 111 421 100 421 q 130 413 122 421 q 138 394 138 406 q 182 221 138 300 q 303 95 226 142 q 468 49 379 49 q 703 150 606 49 q 800 394 800 251 q 808 413 800 406 z "},"V":{"ha":974,"x_min":50,"x_max":933,"o":"m 932 1154 l 932 1153 q 932 1151 932 1153 q 932 1149 932 1149 q 931 1143 931 1143 l 500 21 l 499 21 q 490 10 496 14 q 488 8 490 10 q 486 7 488 7 q 483 6 485 6 q 475 4 479 4 q 465 6 469 4 q 463 7 464 6 q 461 8 461 8 q 458 10 458 10 q 450 21 453 14 q 449 22 449 22 l 54 1144 q 55 1165 50 1154 q 70 1178 60 1175 q 91 1177 81 1182 q 104 1163 101 1172 l 475 108 l 867 1126 l 822 1126 l 697 799 q 672 782 690 782 q 663 783 667 782 q 647 798 651 788 q 647 818 643 808 l 779 1163 q 782 1168 779 1164 q 784 1169 783 1168 q 785 1172 785 1171 q 788 1174 786 1172 q 789 1175 789 1175 q 793 1178 793 1178 l 796 1178 l 797 1179 q 804 1181 801 1181 l 904 1181 l 906 1181 q 908 1180 907 1181 q 910 1179 910 1179 q 913 1179 911 1179 q 915 1178 914 1179 q 922 1174 918 1176 l 925 1172 q 928 1167 925 1172 q 929 1165 928 1167 q 930 1164 929 1165 q 931 1161 931 1163 q 931 1160 931 1160 q 932 1154 932 1156 z "},"W":{"ha":1399,"x_min":18,"x_max":1369,"o":"m 1326 1174 q 1331 1176 1326 1174 q 1347 1176 1336 1179 q 1364 1165 1358 1174 q 1367 1144 1369 1156 l 1085 25 l 1083 24 q 1075 10 1081 15 q 1074 10 1075 10 q 1067 6 1069 6 q 1058 4 1063 4 q 1051 6 1054 4 q 1043 8 1047 6 q 1043 9 1043 8 q 1042 10 1043 10 q 1033 21 1036 14 q 1033 22 1033 22 q 1032 22 1032 22 l 696 1065 l 357 31 q 357 29 357 29 q 336 6 356 10 q 329 4 333 4 q 304 25 308 4 l 21 1144 q 24 1165 18 1156 q 40 1176 31 1174 q 51 1178 46 1178 q 52 1178 51 1178 q 54 1178 53 1178 l 143 1178 q 146 1177 144 1178 q 147 1176 147 1176 q 167 1174 158 1179 q 179 1157 176 1168 l 279 758 q 276 738 282 747 q 260 726 271 729 q 253 725 257 725 q 226 746 232 725 l 132 1124 l 82 1124 l 333 129 l 671 1160 l 671 1161 l 671 1163 q 674 1167 672 1164 q 678 1171 675 1169 q 681 1173 678 1171 q 686 1176 683 1175 q 687 1177 686 1176 q 688 1178 688 1178 q 689 1178 688 1178 q 690 1178 690 1178 q 697 1178 694 1178 q 701 1178 699 1178 q 703 1178 701 1178 q 704 1178 704 1178 q 706 1176 704 1178 q 711 1174 708 1175 q 715 1171 714 1171 q 718 1167 717 1169 q 721 1161 719 1164 q 722 1160 721 1160 l 1056 128 l 1315 1157 q 1326 1174 1317 1168 z "},"X":{"ha":1053,"x_min":82,"x_max":971,"o":"m 590 588 l 964 43 q 967 23 969 33 q 957 6 965 13 q 942 1 950 1 q 919 13 928 1 l 557 540 l 194 13 q 172 1 186 1 l 171 1 l 168 3 q 163 1 164 1 q 146 8 153 1 l 93 53 q 85 75 83 61 q 89 96 83 86 l 240 310 q 258 320 247 318 q 278 316 269 322 q 290 299 288 310 q 285 278 292 288 l 144 81 l 164 63 l 525 588 l 150 1132 q 147 1152 144 1142 q 158 1169 149 1163 q 178 1174 167 1175 q 194 1163 189 1172 l 557 635 l 919 1163 q 936 1174 925 1172 q 956 1169 947 1175 q 967 1152 965 1163 q 964 1132 969 1142 l 590 588 z "},"Y":{"ha":1044,"x_min":32,"x_max":1029,"o":"m 994 1177 q 1000 1178 994 1177 q 1015 1174 1006 1179 q 1026 1157 1024 1168 q 1022 1136 1029 1146 l 610 503 l 610 26 q 601 8 610 15 q 582 0 593 0 q 579 0 582 0 q 578 1 578 0 q 576 1 578 1 q 574 0 575 0 l 486 0 q 467 8 475 0 q 460 26 460 15 l 460 504 l 43 1131 q 44 1163 32 1146 q 69 1178 53 1178 l 172 1178 q 192 1168 183 1178 q 200 1160 197 1164 l 508 696 q 513 676 515 686 q 501 658 511 665 q 486 654 494 654 q 464 667 472 654 l 160 1124 l 111 1124 l 507 529 q 510 524 508 528 q 513 511 513 517 l 513 54 l 556 54 l 556 511 q 556 512 556 511 q 556 514 556 513 q 557 519 556 515 q 560 524 558 522 l 560 525 l 560 526 l 978 1165 q 994 1177 983 1175 z "},"Z":{"ha":1057,"x_min":82,"x_max":999,"o":"m 972 57 q 991 49 983 57 q 999 29 999 40 q 991 10 999 18 q 972 3 983 3 l 188 3 q 169 10 176 3 q 161 29 161 18 q 169 49 161 40 q 188 57 176 57 l 972 57 m 996 1146 q 992 1135 994 1139 l 132 17 q 111 6 125 6 q 94 11 103 6 q 85 29 86 18 q 90 49 83 40 l 918 1126 l 165 1126 l 165 1057 l 496 1057 q 515 1049 507 1057 q 524 1031 524 1042 q 515 1011 524 1019 q 496 1003 507 1003 l 149 1003 q 143 1004 149 1003 q 142 1004 142 1004 q 138 1003 139 1003 q 119 1011 126 1003 q 111 1031 111 1019 l 111 1154 q 119 1173 111 1165 q 138 1181 126 1181 q 143 1179 138 1181 q 145 1180 143 1179 q 149 1181 147 1181 l 971 1181 q 990 1173 982 1181 q 997 1154 997 1165 q 996 1146 997 1151 z "},"[":{"ha":339,"x_min":49,"x_max":310,"o":"m 283 58 q 301 51 294 58 q 308 33 308 43 q 301 15 308 22 q 283 8 294 8 l 75 8 q 57 15 64 8 q 50 33 50 22 l 50 1418 q 53 1431 50 1425 q 63 1440 57 1436 q 75 1443 68 1443 l 283 1443 q 301 1436 294 1443 q 308 1419 308 1429 q 301 1401 308 1408 q 283 1393 294 1393 l 100 1393 l 100 58 l 283 58 z "},"\\":{"ha":422,"x_min":19,"x_max":400,"o":"m 71 1196 l 394 60 q 383 32 400 42 q 376 29 381 31 q 358 31 367 26 q 346 47 349 36 l 22 1182 q 25 1201 19 1192 q 40 1213 31 1210 q 59 1210 50 1215 q 71 1196 68 1206 z "},"]":{"ha":335,"x_min":18,"x_max":279,"o":"m 253 1432 q 271 1425 264 1432 q 278 1407 278 1418 l 278 22 q 271 5 278 13 q 253 -3 264 -3 l 44 -3 q 26 5 33 -3 q 19 23 19 13 q 26 40 19 33 q 44 47 33 47 l 228 47 l 228 1382 l 44 1382 q 32 1385 38 1382 q 23 1394 26 1389 q 19 1407 19 1400 q 23 1420 19 1414 q 32 1429 26 1426 q 44 1432 38 1432 l 253 1432 z "},"_":{"ha":911,"x_min":26,"x_max":890,"o":"m 865 65 q 883 58 875 65 q 890 40 890 50 q 883 22 890 29 q 865 14 875 14 l 53 14 q 35 22 42 14 q 28 40 28 29 q 35 58 28 50 q 53 65 42 65 l 865 65 z "},"a":{"ha":775,"x_min":11,"x_max":765,"o":"m 72 598 q 67 595 72 598 q 52 594 63 592 q 35 607 42 597 q 32 626 29 617 q 142 804 58 736 q 335 872 226 872 q 555 777 464 872 q 646 549 646 682 q 638 529 646 538 q 619 521 631 521 q 600 529 608 521 q 592 549 592 538 q 558 684 592 622 q 464 783 524 746 q 335 819 404 819 q 176 762 246 819 q 85 614 106 704 q 72 598 82 604 m 744 94 q 749 92 744 94 q 759 81 754 90 q 760 60 764 71 q 747 44 757 50 q 700 32 722 32 q 656 44 675 32 q 605 130 622 68 q 587 269 588 192 q 588 396 586 347 q 594 485 590 444 q 604 503 596 496 q 624 508 613 510 q 642 499 635 507 q 649 479 649 490 q 642 244 633 375 q 686 89 651 114 q 722 92 700 81 q 744 94 733 97 m 115 149 q 116 128 121 139 q 101 114 111 118 q 92 111 97 111 q 67 128 74 111 q 56 339 13 257 q 94 385 69 364 q 143 420 119 407 q 207 446 167 433 q 272 464 247 458 q 340 478 296 469 q 415 494 389 489 q 471 512 440 500 q 518 538 501 524 q 536 544 525 544 q 555 535 547 543 q 562 515 563 526 q 553 497 561 504 q 497 465 532 479 q 433 443 461 450 q 351 425 406 436 q 288 412 310 417 q 230 397 265 407 q 174 376 194 386 q 133 349 154 365 q 103 314 113 333 q 115 149 72 254 m 553 221 q 569 209 564 218 q 574 189 575 200 q 482 85 561 131 q 307 24 403 39 q 239 17 271 17 q 114 67 143 17 q 111 88 108 76 q 123 104 114 99 q 143 107 132 110 q 160 94 154 104 q 203 74 169 79 q 299 76 238 68 q 447 127 381 90 q 521 200 513 164 q 527 213 522 207 q 539 220 532 218 q 553 221 546 222 z "},"b":{"ha":869,"x_min":83,"x_max":785,"o":"m 92 1171 q 96 1175 92 1171 q 111 1179 100 1179 q 130 1171 122 1179 q 138 1151 138 1163 l 138 22 q 130 3 138 11 q 111 -4 122 -4 q 92 3 100 -4 q 85 22 85 11 l 85 1151 q 92 1171 85 1163 m 440 910 q 613 848 533 910 q 738 681 692 786 q 785 451 785 575 q 738 221 785 326 q 613 54 692 115 q 440 -7 533 -7 q 302 31 368 -7 q 188 140 236 69 q 183 160 181 149 q 194 177 185 171 q 214 181 203 183 q 232 171 225 179 q 440 46 318 46 q 646 165 561 46 q 731 451 731 283 q 646 737 731 618 q 440 856 561 856 q 326 822 381 856 q 229 728 271 789 q 212 717 222 719 q 192 722 201 715 q 181 738 183 728 q 185 758 178 749 q 300 870 233 831 q 440 910 367 910 z "},"c":{"ha":897,"x_min":83,"x_max":815,"o":"m 443 43 q 462 35 454 43 q 469 17 469 28 q 462 -3 469 6 q 443 -11 454 -11 q 203 110 306 -11 q 85 413 101 231 q 87 426 83 419 q 96 436 90 432 q 108 440 101 440 q 128 435 119 443 q 138 417 138 428 q 240 150 153 257 q 443 43 326 43 m 772 294 q 776 297 772 294 q 792 297 781 300 q 808 285 803 294 q 811 264 814 275 q 695 65 781 140 q 503 -11 610 -11 q 483 -3 492 -11 q 475 17 475 6 q 483 35 475 28 q 503 43 492 43 q 661 108 590 43 q 760 278 732 172 q 772 294 763 289 m 443 917 q 462 909 454 917 q 469 890 469 901 q 462 871 469 879 q 443 863 454 863 q 240 756 326 863 q 138 489 153 649 q 130 472 138 479 q 111 465 122 465 q 108 465 110 465 q 90 475 97 467 q 85 494 83 483 q 203 796 101 675 q 443 917 306 917 m 503 863 q 483 871 492 863 q 475 890 475 879 q 483 909 475 901 q 503 917 492 917 q 681 856 601 917 q 789 699 760 796 q 786 678 792 688 q 771 665 781 668 q 763 664 767 664 q 738 683 743 664 q 648 813 713 764 q 503 863 583 863 z "},"d":{"ha":869,"x_min":83,"x_max":785,"o":"m 739 1171 q 743 1175 739 1171 q 758 1179 747 1179 q 777 1171 769 1179 q 785 1151 785 1163 l 785 22 q 777 3 785 11 q 758 -4 769 -4 q 739 3 747 -4 q 731 22 731 11 l 731 1151 q 739 1171 731 1163 m 429 856 q 223 737 308 856 q 138 451 138 618 q 145 358 138 404 q 167 273 153 313 q 202 198 182 233 q 247 135 222 163 q 301 88 272 107 q 362 57 329 68 q 429 46 394 46 q 638 169 551 46 q 655 181 644 179 q 674 177 665 183 q 685 160 683 171 q 682 139 688 149 q 567 31 633 69 q 429 -7 500 -7 q 256 54 335 -7 q 131 221 176 115 q 85 451 85 326 q 131 681 85 575 q 256 848 176 786 q 429 910 335 910 q 524 892 478 910 q 610 840 569 874 q 685 758 651 806 q 688 738 690 749 q 677 722 686 728 q 657 717 668 715 q 640 728 646 719 q 544 822 599 789 q 429 856 489 856 z "},"e":{"ha":793,"x_min":18,"x_max":765,"o":"m 764 440 q 764 439 764 440 q 765 436 765 438 q 757 417 765 425 q 738 410 749 410 l 104 410 q 85 417 93 410 q 78 436 78 425 q 85 456 78 447 q 104 464 93 464 l 708 464 q 609 711 700 610 q 392 813 518 813 q 166 703 260 813 q 72 438 72 593 q 166 174 72 283 q 392 64 260 64 q 567 126 488 64 q 685 290 647 188 q 699 306 689 301 q 719 307 708 311 q 734 293 729 303 q 736 272 739 283 q 598 81 692 153 q 392 10 504 10 q 128 135 238 10 q 19 438 19 261 q 128 741 19 615 q 392 867 238 867 q 655 742 546 867 q 764 440 764 617 z "},"f":{"ha":551,"x_min":83,"x_max":468,"o":"m 440 832 q 453 828 447 832 q 464 819 460 825 q 468 806 468 813 q 460 787 468 794 q 440 779 451 779 l 251 779 q 274 753 274 775 l 274 26 q 266 8 274 15 q 247 0 258 0 q 228 8 236 0 q 219 26 219 15 l 219 753 q 242 779 219 775 l 111 779 q 92 787 100 779 q 85 806 85 794 q 92 824 85 817 q 111 832 100 832 l 440 832 m 217 865 q 214 900 217 874 q 212 978 214 939 q 224 1061 210 1018 q 267 1128 238 1104 q 433 1140 325 1174 q 449 1128 444 1138 q 451 1107 454 1118 q 438 1091 449 1096 q 418 1089 428 1086 q 301 1086 336 1114 q 272 1036 281 1071 q 265 968 264 1001 q 268 903 267 935 q 269 865 269 875 q 262 847 269 854 q 243 839 254 839 q 224 847 232 839 q 217 865 217 854 z "},"g":{"ha":910,"x_min":83,"x_max":826,"o":"m 463 -57 q 316 -19 386 -57 q 195 85 246 19 q 115 240 144 150 q 85 428 85 329 q 135 670 85 558 q 273 847 186 782 q 463 911 360 911 q 617 869 543 911 q 743 753 690 828 q 748 732 750 743 q 737 715 746 721 q 717 710 728 708 q 700 721 706 713 q 592 822 654 786 q 463 857 529 857 q 233 731 329 857 q 138 427 138 606 q 233 123 138 249 q 463 -3 329 -3 q 697 129 601 -3 q 714 140 703 138 q 734 135 725 142 q 745 117 743 128 q 740 97 747 107 q 615 -17 688 24 q 463 -57 542 -57 m 779 884 q 783 888 779 884 q 799 892 788 892 q 817 884 810 892 q 825 865 825 876 l 825 -62 q 817 -81 825 -74 q 799 -89 810 -89 q 779 -81 788 -89 q 771 -62 771 -74 l 771 865 q 779 884 771 876 m 776 -133 q 780 -132 776 -133 q 790 -133 783 -131 q 803 -140 797 -135 q 810 -151 808 -144 q 811 -164 813 -157 q 741 -300 793 -244 q 624 -379 689 -356 q 485 -403 558 -403 q 446 -401 465 -403 q 251 -322 326 -389 q 174 -160 175 -254 q 181 -140 174 -149 q 200 -132 189 -132 q 219 -140 211 -132 q 228 -158 228 -147 q 294 -289 229 -239 q 450 -347 360 -339 q 581 -337 518 -354 q 693 -274 643 -321 q 758 -153 743 -226 q 765 -141 760 -146 q 776 -133 769 -136 z "},"h":{"ha":782,"x_min":83,"x_max":699,"o":"m 92 1144 q 96 1148 92 1144 q 111 1151 100 1151 q 130 1144 122 1151 q 138 1125 138 1136 l 138 96 q 130 77 138 85 q 111 69 122 69 q 92 77 100 69 q 85 96 85 85 l 85 1125 q 92 1144 85 1136 m 652 629 q 656 633 652 629 q 671 638 660 638 q 690 629 682 638 q 697 610 697 621 l 697 96 q 690 76 697 85 q 671 68 682 68 q 652 76 660 68 q 644 96 644 85 l 644 610 q 652 629 644 621 m 661 653 q 636 668 643 653 q 549 765 608 729 q 415 800 489 800 q 288 767 347 800 q 200 681 229 735 q 185 667 196 671 q 164 669 174 664 q 151 685 154 675 q 153 706 149 696 q 260 814 189 774 q 415 854 332 854 q 578 810 506 854 q 685 690 651 765 q 685 670 689 681 q 671 656 682 660 q 661 653 667 653 z "},"i":{"ha":222,"x_min":83,"x_max":139,"o":"m 92 778 q 96 782 92 778 q 111 786 100 786 q 130 778 122 786 q 138 760 138 771 l 138 22 q 130 3 138 11 q 111 -6 122 -6 q 92 3 100 -6 q 85 22 85 11 l 85 760 q 92 778 85 771 m 92 1100 q 96 1104 92 1100 q 111 1108 100 1108 q 130 1100 122 1108 q 138 1081 138 1092 l 138 961 q 130 942 138 950 q 111 935 122 935 q 92 942 100 935 q 85 961 85 950 l 85 1081 q 92 1100 85 1092 z "},"j":{"ha":268,"x_min":-65,"x_max":185,"o":"m 174 569 q 180 374 178 457 q 183 192 182 292 q 181 21 183 93 q 169 -127 178 -51 q 149 -255 161 -203 q 116 -349 136 -307 q 68 -412 96 -392 q 3 -436 40 -436 q -46 -426 -21 -436 q -60 -411 -56 -422 q -61 -389 -65 -400 q -47 -372 -57 -378 q -26 -371 -37 -367 q 38 -365 11 -386 q 85 -290 65 -343 q 113 -149 104 -236 q 126 15 122 -62 q 129 210 131 92 q 126 392 128 328 q 119 567 124 457 q 113 786 113 731 q 121 806 113 797 q 140 815 129 815 q 159 806 151 815 q 167 786 167 797 q 174 569 167 732 m 144 970 q 140 966 144 970 q 125 963 136 963 q 106 970 114 963 q 97 989 97 978 l 97 1108 q 106 1128 97 1119 q 125 1136 114 1136 q 144 1128 136 1136 q 151 1108 151 1119 l 151 989 q 144 970 151 978 z "},"k":{"ha":756,"x_min":83,"x_max":674,"o":"m 92 1188 q 96 1192 92 1188 q 111 1196 100 1196 q 130 1188 122 1196 q 138 1168 138 1179 l 138 24 q 130 5 138 13 q 111 -3 122 -3 q 92 5 100 -3 q 85 24 85 13 l 85 1168 q 92 1188 85 1179 m 607 865 q 613 865 607 865 q 626 857 618 865 q 635 838 635 849 q 626 819 635 826 l 201 393 q 182 386 193 386 q 163 394 171 386 q 156 413 156 401 q 163 432 156 424 l 589 857 q 607 865 596 865 m 668 40 q 671 21 674 32 q 658 4 668 10 q 644 0 651 0 q 622 13 629 0 l 338 471 q 335 491 332 481 q 347 508 338 501 q 367 511 356 514 q 383 499 378 508 l 668 40 z "},"l":{"ha":222,"x_min":83,"x_max":139,"o":"m 92 1188 q 96 1192 92 1188 q 111 1196 100 1196 q 130 1188 122 1196 q 138 1168 138 1179 l 138 24 q 130 5 138 13 q 111 -3 122 -3 q 92 5 100 -3 q 85 24 85 13 l 85 1168 q 92 1188 85 1179 z "},"m":{"ha":1224,"x_min":83,"x_max":1140,"o":"m 92 877 q 96 881 92 877 q 111 885 100 885 q 130 877 122 885 q 138 858 138 869 l 138 24 q 130 5 138 13 q 111 -3 122 -3 q 92 5 100 -3 q 85 24 85 13 l 85 858 q 92 877 85 869 m 617 601 q 621 606 617 601 q 637 610 625 610 q 656 601 649 610 q 664 582 664 593 l 664 24 q 656 5 664 13 q 637 -3 649 -3 q 617 5 625 -3 q 610 24 610 13 l 610 582 q 617 601 610 593 m 1094 601 q 1098 606 1094 601 q 1113 610 1101 610 q 1131 601 1124 610 q 1139 582 1139 593 l 1139 24 q 1131 5 1139 13 q 1113 -3 1124 -3 q 1094 5 1101 -3 q 1086 24 1086 13 l 1086 582 q 1094 601 1086 593 m 654 624 q 650 619 654 624 q 635 615 646 615 q 616 624 624 615 q 608 643 608 632 q 592 712 608 679 q 547 768 575 744 q 481 806 519 792 q 400 821 442 821 q 306 801 350 821 q 231 747 261 782 q 193 671 201 713 q 183 653 192 660 q 163 649 174 647 q 145 660 151 651 q 140 681 139 669 q 229 819 156 764 q 400 874 303 874 q 585 806 508 874 q 663 643 663 739 q 654 624 663 632 m 1131 624 q 1127 619 1131 624 q 1113 615 1124 615 q 1094 624 1101 615 q 1086 643 1086 632 q 1025 769 1086 717 q 876 821 964 821 q 811 812 843 821 q 752 785 779 803 q 706 744 725 768 q 688 735 699 736 q 668 740 676 733 q 658 758 660 747 q 664 778 657 769 q 758 849 701 824 q 876 874 814 874 q 1063 806 986 874 q 1139 643 1139 739 q 1131 624 1139 632 z "},"n":{"ha":767,"x_min":83,"x_max":682,"o":"m 633 601 q 636 606 633 601 q 651 610 640 610 q 670 601 663 610 q 678 582 678 593 l 678 24 q 670 5 678 13 q 651 -3 663 -3 q 633 5 640 -3 q 625 24 625 13 l 625 582 q 633 601 625 593 m 92 877 q 96 881 92 877 q 111 885 100 885 q 130 877 122 885 q 138 858 138 869 l 138 24 q 130 5 138 13 q 111 -3 122 -3 q 92 5 100 -3 q 85 24 85 13 l 85 858 q 92 877 85 869 m 674 624 q 669 619 674 624 q 654 615 665 615 q 635 624 643 615 q 628 643 628 632 q 567 769 628 717 q 419 821 506 821 q 284 778 343 821 q 213 671 225 735 q 207 658 211 664 q 196 650 203 653 q 182 649 189 647 q 165 660 171 651 q 160 681 158 669 q 249 819 175 764 q 419 874 322 874 q 551 843 490 874 q 647 759 611 813 q 682 643 682 706 q 674 624 682 632 z "},"o":{"ha":960,"x_min":83,"x_max":876,"o":"m 442 807 q 227 699 317 807 q 138 441 138 592 q 227 183 138 290 q 442 76 317 76 q 460 68 453 76 q 468 49 468 60 q 460 30 468 38 q 442 22 453 22 q 190 145 294 22 q 85 441 85 268 q 190 737 85 614 q 442 860 294 860 q 460 852 453 860 q 468 833 468 844 q 460 815 468 822 q 442 807 453 807 m 518 860 q 770 737 665 860 q 875 441 875 614 q 770 145 875 268 q 518 22 665 22 q 499 30 507 22 q 492 49 492 38 q 499 68 492 60 q 518 76 507 76 q 670 125 600 76 q 781 258 740 174 q 821 442 821 342 q 732 699 821 592 q 518 807 643 807 q 499 815 507 807 q 492 833 492 822 q 499 852 492 844 q 518 860 507 860 z "},"p":{"ha":715,"x_min":25,"x_max":690,"o":"m 34 238 q 38 242 34 238 q 53 246 42 246 q 72 238 64 246 q 79 219 79 231 l 79 -301 q 72 -320 79 -312 q 53 -328 64 -328 q 34 -320 42 -328 q 26 -301 26 -312 l 26 219 q 34 238 26 231 m 72 258 q 68 254 72 258 q 53 250 64 250 q 34 258 42 250 q 26 276 26 265 l 26 844 q 34 864 26 856 q 53 872 42 872 q 72 864 64 872 q 79 844 79 856 l 79 276 q 72 258 79 265 m 140 657 q 134 656 140 657 q 119 660 129 654 q 106 676 110 665 q 108 696 103 686 q 222 822 153 776 q 371 867 292 867 q 596 750 503 867 q 689 469 689 633 q 681 450 689 458 q 663 442 674 442 q 643 450 651 442 q 635 469 635 458 q 558 712 635 611 q 371 813 481 813 q 308 803 339 813 q 250 775 278 793 q 198 730 222 757 q 156 671 174 703 q 140 657 150 660 m 643 425 q 647 429 643 425 q 663 433 651 433 q 681 425 674 433 q 689 406 689 417 q 596 125 689 242 q 371 8 503 8 q 199 71 278 8 q 81 239 119 133 q 82 259 78 249 q 97 274 86 269 q 107 274 101 275 q 117 272 113 274 q 126 266 122 269 q 132 257 129 263 q 229 115 164 168 q 371 63 294 63 q 558 163 481 63 q 635 406 635 264 q 643 425 635 417 z "},"q":{"ha":832,"x_min":83,"x_max":749,"o":"m 701 238 q 706 242 701 238 q 721 246 710 246 q 740 238 732 246 q 747 219 747 231 l 747 -301 q 740 -320 747 -312 q 721 -328 732 -328 q 701 -320 710 -328 q 693 -301 693 -312 l 693 219 q 701 238 693 231 m 701 864 q 706 868 701 864 q 721 872 710 872 q 740 864 732 872 q 747 844 747 856 l 747 276 q 740 258 747 265 q 721 250 732 250 q 701 258 710 250 q 693 276 693 265 l 693 844 q 701 864 693 856 m 130 450 q 126 446 130 450 q 111 442 122 442 q 92 450 100 442 q 85 469 85 458 q 127 668 85 576 q 243 813 169 760 q 403 867 317 867 q 551 822 482 867 q 665 696 621 776 q 667 676 671 686 q 654 660 664 665 q 634 657 644 654 q 618 671 624 660 q 524 775 581 738 q 403 813 467 813 q 215 712 293 813 q 138 469 138 611 q 130 450 138 458 m 656 272 q 661 274 656 272 q 677 273 667 276 q 692 259 688 269 q 693 239 696 249 q 575 71 654 133 q 403 8 496 8 q 178 125 271 8 q 85 406 85 242 q 92 425 85 417 q 111 433 100 433 q 130 425 122 433 q 138 406 138 417 q 215 163 138 264 q 403 63 293 63 q 544 115 479 63 q 642 257 610 168 q 656 272 646 268 z "},"r":{"ha":414,"x_min":21,"x_max":399,"o":"m 376 829 q 393 815 388 825 q 395 795 399 806 q 381 780 392 785 q 361 778 371 775 q 282 776 321 790 q 217 736 243 761 q 168 674 192 711 q 138 623 144 638 q 126 597 131 608 q 101 581 119 581 q 92 583 96 581 q 75 603 79 588 l 75 40 q 67 21 75 29 q 49 13 60 13 q 30 21 38 13 q 22 40 22 29 l 22 844 q 30 864 22 856 q 49 872 38 872 q 67 864 60 872 q 75 844 75 856 l 75 614 q 76 618 76 618 q 81 628 78 622 q 91 650 83 635 q 108 680 99 665 q 130 714 117 694 q 158 750 143 733 q 190 784 172 767 q 229 813 208 801 q 273 831 250 824 q 323 838 296 839 q 376 829 350 838 z "},"s":{"ha":651,"x_min":22,"x_max":643,"o":"m 157 449 q 59 531 94 481 q 24 638 24 581 q 114 799 24 732 q 333 865 204 865 q 551 798 461 865 q 642 638 642 731 l 642 631 q 633 611 642 619 q 614 604 625 603 q 595 613 603 604 q 589 632 588 621 q 554 723 589 682 q 461 788 519 764 q 333 811 403 811 q 205 788 264 811 q 111 724 146 764 q 76 638 76 685 q 89 584 76 610 q 125 536 101 558 q 181 497 149 514 q 194 481 190 492 q 193 461 197 471 q 169 446 185 446 q 157 449 163 446 m 350 446 q 409 431 389 436 q 465 413 429 425 q 522 390 501 400 q 569 362 543 379 q 610 326 596 344 q 633 284 624 308 q 642 232 643 260 q 601 118 642 171 q 488 35 560 65 q 333 4 417 4 q 114 71 204 4 q 24 232 24 138 q 31 251 24 243 q 50 260 39 260 q 69 251 61 260 q 76 232 76 243 q 151 109 76 160 q 333 58 226 58 q 514 109 439 58 q 589 232 589 160 q 580 274 589 254 q 549 309 571 293 q 508 336 528 325 q 453 359 489 347 q 397 377 418 371 q 336 394 376 383 q 215 432 250 418 q 200 447 204 436 q 200 467 196 457 q 214 481 204 476 q 235 482 224 486 q 350 446 268 468 z "},"t":{"ha":425,"x_min":14,"x_max":403,"o":"m 215 202 q 211 198 215 202 q 196 194 207 194 q 177 202 185 194 q 169 221 169 210 l 169 793 l 42 793 q 23 801 31 793 q 15 819 15 808 q 23 838 15 831 q 42 846 31 846 l 169 846 l 169 1088 q 177 1106 169 1099 q 196 1114 185 1114 q 215 1106 207 1114 q 224 1088 224 1099 l 224 846 l 368 846 q 387 838 379 846 q 394 819 394 831 q 387 801 394 808 q 368 793 379 793 l 224 793 l 224 221 q 215 202 224 210 m 401 60 q 402 49 403 54 q 399 40 401 44 q 394 31 397 35 q 385 25 390 28 q 299 8 336 8 q 222 32 253 8 q 183 87 196 51 q 170 139 171 122 q 171 166 169 156 q 181 184 172 176 q 200 190 189 192 q 218 181 211 190 q 225 163 225 172 q 254 75 225 99 q 367 76 290 49 q 381 78 374 79 q 393 72 388 76 q 401 60 399 67 z "},"u":{"ha":696,"x_min":32,"x_max":661,"o":"m 615 267 q 618 271 615 267 q 633 275 622 275 q 653 267 644 275 q 661 247 661 258 q 569 71 661 144 q 347 -3 476 -3 q 126 71 218 -3 q 35 247 35 144 q 42 267 35 258 q 61 275 50 275 q 81 267 72 275 q 89 247 89 258 q 165 109 89 167 q 347 51 240 51 q 531 109 454 51 q 607 247 607 167 q 615 267 607 258 m 78 303 q 75 300 78 303 q 60 296 71 296 q 41 303 49 296 q 33 322 33 311 l 33 864 q 41 883 33 875 q 60 892 49 892 q 78 883 71 892 q 86 864 86 875 l 86 322 q 78 303 86 311 m 647 303 q 643 300 647 303 q 628 296 639 296 q 608 303 617 296 q 600 322 600 311 l 600 864 q 608 883 600 875 q 628 892 617 892 q 647 883 639 892 q 654 864 654 875 l 654 322 q 647 303 654 311 z "},"v":{"ha":685,"x_min":18,"x_max":668,"o":"m 416 313 q 421 316 416 313 q 437 315 426 318 q 452 301 447 311 q 453 279 457 290 l 368 40 q 343 24 361 24 q 340 24 342 24 q 339 24 340 24 l 338 24 l 336 24 q 310 40 317 24 l 22 850 q 23 871 18 861 q 38 884 28 881 q 59 883 49 888 q 72 868 69 878 l 339 119 l 403 297 q 416 313 406 308 m 627 885 q 632 888 627 885 q 648 886 638 890 q 663 872 658 882 q 664 851 667 861 l 475 342 q 450 324 468 324 q 440 325 444 324 q 425 340 429 329 q 425 360 421 350 l 613 869 q 627 885 617 881 z "},"w":{"ha":1093,"x_min":15,"x_max":1074,"o":"m 350 313 q 355 315 350 313 q 371 315 360 318 q 388 301 382 311 q 389 281 393 292 l 318 42 q 292 22 313 22 l 290 24 l 289 24 l 288 24 l 286 22 q 260 42 267 22 l 18 851 q 16 862 15 857 q 19 872 17 867 q 26 880 22 876 q 36 885 31 883 q 56 883 46 888 q 69 867 65 878 l 289 133 l 338 296 q 350 313 340 307 m 854 313 q 859 315 854 313 q 874 315 864 318 q 890 301 885 311 q 893 281 896 292 l 821 42 q 794 22 815 22 q 794 23 794 22 q 792 24 793 24 l 789 22 q 764 42 769 22 l 543 778 l 407 343 q 382 324 401 324 q 374 325 378 324 q 358 338 363 328 q 356 358 353 349 l 515 868 q 528 884 518 879 q 549 886 538 889 l 550 886 q 572 867 567 883 l 792 133 l 842 296 q 854 313 844 307 m 1051 886 q 1067 874 1063 883 q 1069 853 1072 864 l 911 343 q 885 324 906 324 q 878 325 882 324 q 861 338 867 328 q 860 358 856 349 l 1018 868 q 1026 880 1021 875 q 1038 886 1031 885 q 1051 886 1044 888 z "},"x":{"ha":800,"x_min":82,"x_max":717,"o":"m 453 428 l 707 42 q 712 22 714 32 q 700 4 710 11 q 685 0 693 0 q 663 13 671 0 l 408 399 q 404 419 401 408 q 416 435 407 429 q 436 440 425 442 q 453 428 447 438 m 363 440 q 368 441 363 440 q 383 435 374 442 q 395 419 393 429 q 392 399 397 408 l 133 10 q 111 -1 126 -1 q 96 3 103 -1 q 85 19 88 8 q 89 40 83 31 l 346 428 q 363 440 353 438 m 415 454 q 405 472 407 461 q 408 492 403 482 l 665 881 q 683 892 672 890 q 703 888 693 894 q 715 871 713 882 q 711 850 717 860 l 453 463 q 431 450 444 450 q 415 454 422 450 m 136 878 l 392 492 q 395 471 397 482 q 383 454 393 460 q 369 450 376 450 q 346 463 354 450 l 92 849 q 88 869 86 858 q 99 885 90 879 q 119 890 108 892 q 136 878 131 888 z "},"y":{"ha":676,"x_min":21,"x_max":663,"o":"m 306 93 q 281 111 288 93 l 25 822 q 26 842 21 832 q 41 856 31 853 q 62 856 51 860 q 75 840 72 851 l 331 129 q 330 108 335 118 q 315 94 325 99 q 306 93 311 93 m 640 850 q 653 843 649 849 q 660 831 658 838 q 660 817 661 825 q 627 705 646 768 q 567 513 608 642 q 479 268 526 385 q 378 33 432 151 q 263 -167 324 -86 q 146 -271 201 -249 q 101 -281 124 -281 q 46 -264 72 -281 q 33 -247 36 -258 q 36 -227 31 -236 q 53 -215 42 -218 q 74 -218 64 -212 q 125 -221 97 -232 q 217 -138 168 -204 q 314 24 267 -72 q 406 230 361 121 q 490 456 450 339 q 558 664 529 572 q 608 832 588 756 q 615 844 610 839 q 627 850 621 849 q 640 850 633 851 z "},"z":{"ha":696,"x_min":29,"x_max":674,"o":"m 60 775 q 41 783 49 775 q 33 803 33 792 q 41 822 33 814 q 60 829 49 829 l 646 829 q 665 822 657 829 q 674 803 674 814 q 665 783 674 792 q 646 775 657 775 l 60 775 m 646 83 q 665 76 657 83 q 674 57 674 68 q 665 38 674 46 q 646 29 657 29 l 113 29 q 93 38 101 29 q 85 57 85 46 q 93 76 85 68 q 113 83 101 83 l 646 83 m 600 770 q 606 770 600 770 q 620 764 611 771 q 630 746 629 757 q 624 726 631 735 l 78 69 q 57 60 69 60 q 40 65 47 60 q 31 83 32 72 q 36 103 29 94 l 582 761 q 600 770 589 769 z "},"{":{"ha":538,"x_min":15,"x_max":513,"o":"m 485 56 q 497 53 492 56 q 506 44 503 50 q 511 32 510 39 q 504 14 511 22 q 486 6 497 6 q 478 6 482 6 q 426 15 450 6 q 383 39 401 25 q 349 80 365 53 q 322 128 332 107 q 300 188 313 149 q 282 249 288 226 q 265 315 276 271 q 248 385 254 361 q 229 450 242 408 q 206 515 217 492 q 178 570 196 539 q 142 619 161 601 q 98 652 124 636 q 43 675 72 668 q 38 678 42 675 q 17 703 15 681 q 24 721 17 714 q 43 726 32 728 q 93 739 71 726 q 131 771 115 751 q 163 828 147 790 q 188 903 178 867 q 213 997 199 939 q 231 1072 225 1046 q 251 1142 238 1097 q 278 1213 265 1188 q 310 1274 290 1239 q 353 1329 331 1308 q 406 1368 375 1350 q 474 1394 438 1386 q 492 1392 483 1397 q 503 1376 501 1386 q 500 1357 506 1365 q 485 1346 494 1349 q 428 1323 454 1339 q 385 1290 403 1307 q 349 1241 367 1272 q 321 1186 332 1210 q 297 1121 310 1163 q 278 1056 285 1079 q 261 986 272 1032 q 238 894 247 926 q 211 816 228 861 q 172 742 194 771 q 122 697 150 714 q 184 644 156 678 q 231 580 213 611 q 266 498 249 549 q 292 415 283 447 q 315 326 301 383 q 340 231 329 268 q 365 156 350 194 q 397 98 381 118 q 435 66 413 78 q 485 56 457 54 z "},"}":{"ha":538,"x_min":21,"x_max":518,"o":"m 496 724 q 510 715 504 722 q 517 699 517 708 q 508 682 515 689 q 490 674 500 675 q 439 663 461 675 q 401 631 417 650 q 369 572 385 611 q 344 499 354 533 q 321 404 335 464 q 302 330 308 356 q 281 259 296 304 q 255 188 267 214 q 222 126 243 161 q 179 72 201 92 q 126 33 157 51 q 60 6 96 14 q 54 6 57 6 q 29 25 33 6 q 33 44 28 35 q 49 56 39 53 q 103 77 78 61 q 148 111 129 93 q 184 160 167 129 q 212 215 201 192 q 235 280 222 239 q 253 345 247 321 q 271 415 260 369 q 296 507 286 472 q 322 585 306 542 q 361 658 339 629 q 411 704 383 688 q 349 756 376 724 q 303 821 321 789 q 267 903 285 853 q 240 986 249 954 q 218 1075 232 1018 q 194 1169 204 1133 q 168 1244 183 1206 q 137 1301 153 1282 q 99 1333 121 1321 q 49 1344 76 1346 q 30 1352 38 1346 q 22 1369 22 1358 q 24 1378 22 1374 q 28 1387 25 1383 q 36 1392 32 1390 q 46 1396 40 1394 q 101 1388 75 1397 q 145 1365 126 1379 q 181 1325 164 1351 q 209 1276 199 1299 q 231 1216 219 1254 q 249 1153 243 1178 q 267 1086 256 1129 q 284 1017 278 1040 q 303 951 290 993 q 326 886 315 910 q 355 831 338 863 q 390 782 372 800 q 434 748 408 764 q 490 726 460 732 q 496 724 490 726 z "},"":{"ha":521,"x_min":0,"x_max":0,"o":""},"":{"ha":219,"x_min":83,"x_max":135,"o":"m 92 875 q 95 878 92 875 q 109 882 99 882 q 127 875 119 882 q 135 857 135 868 l 135 26 q 127 9 135 17 q 109 1 119 1 q 92 9 99 1 q 85 26 85 17 l 85 857 q 92 875 85 868 m 92 1159 q 95 1163 92 1159 q 109 1167 99 1167 q 127 1159 119 1167 q 135 1142 135 1151 l 135 992 q 127 974 135 981 q 109 967 119 967 q 92 974 99 967 q 85 992 85 981 l 85 1142 q 92 1159 85 1151 z "},"":{"ha":803,"x_min":24,"x_max":786,"o":"m 764 340 q 776 334 771 339 q 782 323 781 329 q 782 310 783 317 q 641 86 743 171 q 413 1 539 1 q 311 18 363 1 l 267 -139 q 242 -157 261 -157 q 235 -156 239 -157 q 220 -144 225 -153 q 218 -125 215 -135 l 264 36 q 91 199 157 88 q 25 447 25 311 q 77 672 25 569 q 218 835 129 775 q 413 894 307 894 q 507 879 456 894 l 543 1007 q 555 1022 546 1017 q 574 1024 564 1026 q 590 1012 585 1021 q 592 993 594 1003 l 554 863 q 695 754 635 826 q 782 585 756 682 q 780 566 785 575 q 765 554 775 557 q 752 553 758 551 q 741 560 746 556 q 733 571 736 565 q 659 718 710 656 q 540 814 608 781 l 325 65 q 413 51 369 51 q 610 126 522 51 q 733 324 699 201 q 745 338 736 333 q 764 340 754 343 m 278 85 l 493 832 q 413 844 449 844 q 243 791 321 844 q 120 647 165 738 q 75 447 75 556 q 131 229 75 328 q 278 85 188 131 z "},"":{"ha":807,"x_min":36,"x_max":771,"o":"m 146 771 q 128 776 136 769 q 119 794 121 783 q 203 988 113 904 q 411 1086 294 1072 q 515 1080 465 1092 q 612 1037 565 1068 q 693 944 658 1006 q 742 800 728 883 q 738 781 743 789 q 721 771 732 772 q 717 771 719 771 q 693 792 696 771 q 598 983 671 918 q 417 1036 525 1049 q 242 955 319 1025 q 169 797 164 885 q 167 784 171 790 q 158 774 164 778 q 146 771 153 771 m 747 81 q 752 81 747 81 q 764 72 757 81 q 769 53 771 64 q 761 38 768 43 q 660 3 719 3 q 494 40 608 3 q 412 65 442 57 q 337 78 382 72 q 254 73 292 83 q 183 38 217 63 q 165 32 175 31 q 149 42 156 33 q 144 56 146 46 q 138 47 143 54 q 129 38 132 40 q 110 29 122 29 q 94 35 101 29 q 85 52 86 42 q 92 69 85 63 q 234 290 194 188 q 244 510 274 393 l 63 510 q 44 517 51 510 q 38 534 38 524 q 44 552 38 544 q 63 560 51 560 l 229 560 q 138 729 199 640 q 134 747 132 738 q 144 763 136 757 q 163 767 153 769 q 179 757 174 765 q 282 560 250 654 l 525 560 q 542 552 535 560 q 550 534 550 544 q 542 517 550 524 q 525 510 535 510 l 297 510 q 290 297 322 397 q 172 88 257 196 q 240 118 203 108 q 306 129 276 128 q 377 123 336 131 q 443 108 418 115 q 510 88 468 101 q 598 62 568 69 q 666 56 628 54 q 729 76 704 57 q 747 81 738 82 z "},"":{"ha":931,"x_min":24,"x_max":901,"o":"m 869 1154 q 874 1155 869 1154 q 888 1150 879 1156 q 899 1134 897 1144 q 894 1115 900 1124 l 526 561 q 506 550 519 550 q 492 554 497 550 q 481 570 483 560 q 485 589 479 581 l 853 1143 q 869 1154 858 1153 m 238 689 l 100 689 q 82 696 89 689 q 75 713 75 703 q 82 731 75 724 q 100 739 89 739 l 238 739 q 255 731 247 739 q 263 713 263 724 q 255 696 263 703 q 238 689 247 689 m 838 739 q 855 731 847 739 q 863 713 863 724 q 855 696 863 703 q 838 689 847 689 l 700 689 q 682 696 689 689 q 675 713 675 703 q 682 731 675 724 q 700 739 689 739 l 838 739 m 838 471 q 855 463 847 471 q 863 445 863 456 q 855 428 863 435 q 838 421 847 421 l 490 421 l 490 28 q 483 10 490 18 q 466 3 476 3 q 448 10 456 3 q 440 28 440 18 l 440 421 l 90 421 q 73 428 81 421 q 65 446 65 435 q 69 458 65 453 q 78 467 72 464 q 90 471 83 471 l 440 471 l 440 500 l 31 1115 q 27 1134 25 1124 q 38 1150 29 1144 q 56 1153 46 1156 q 72 1143 67 1151 l 485 522 q 485 521 485 522 q 486 519 485 519 q 490 506 490 513 l 490 471 l 838 471 z "},"":{"ha":732,"x_min":4,"x_max":721,"o":"m 158 1085 q 141 1092 149 1085 q 133 1108 133 1099 q 200 1326 121 1235 q 389 1432 279 1417 q 488 1425 439 1438 q 582 1378 536 1413 q 663 1278 628 1344 q 713 1122 699 1213 q 709 1103 715 1111 q 692 1093 703 1094 q 678 1094 685 1092 q 668 1102 672 1097 q 664 1114 664 1107 q 622 1249 651 1192 q 556 1335 593 1306 q 478 1376 518 1365 q 396 1382 438 1388 q 238 1294 304 1369 q 183 1113 172 1218 q 181 1100 183 1106 q 172 1090 178 1094 q 160 1085 167 1086 q 158 1085 160 1085 m 694 771 q 711 750 710 765 q 682 588 721 664 q 569 467 643 511 q 557 463 564 463 q 535 475 543 463 q 532 494 529 483 q 543 510 535 504 q 638 610 606 547 q 663 744 669 674 q 674 768 660 760 q 656 786 658 772 q 640 824 651 807 q 608 852 629 840 q 569 872 588 864 q 519 887 551 881 q 467 897 486 893 q 407 906 447 900 q 345 915 367 911 q 288 926 324 918 q 233 944 253 935 q 190 969 213 954 q 156 1004 168 983 q 139 1053 143 1025 q 139 1062 138 1057 q 143 1071 140 1067 q 150 1078 146 1075 q 158 1081 154 1081 q 178 1077 169 1083 q 188 1061 186 1071 q 207 1022 192 1039 q 240 996 222 1006 q 292 978 258 986 q 349 965 326 969 q 414 956 371 961 q 478 946 457 950 q 538 933 500 942 q 598 915 576 925 q 644 888 619 904 q 684 849 669 872 q 704 796 699 825 q 694 771 708 781 m 39 646 q 22 652 29 646 q 14 668 15 658 q 43 828 6 753 q 153 950 81 904 q 172 953 163 956 q 188 942 182 950 q 191 923 193 933 q 181 907 189 913 q 88 807 118 869 q 64 674 57 744 q 58 655 65 663 q 42 646 51 647 q 39 646 40 646 m 576 331 q 593 310 592 326 q 526 92 606 183 q 336 -14 446 0 q 303 -15 319 -15 q 213 1 257 -15 q 128 53 169 18 q 57 150 88 88 q 13 296 26 213 q 17 315 11 307 q 33 325 24 324 q 51 320 43 326 q 63 304 60 314 q 93 191 72 240 q 141 111 114 142 q 200 62 168 81 q 265 38 232 43 q 329 36 297 32 q 487 124 421 47 q 543 306 553 200 q 554 329 542 321 q 536 346 539 333 q 521 384 532 368 q 490 413 510 400 q 451 433 469 425 q 401 447 433 440 q 348 458 368 454 q 289 467 328 461 q 226 476 247 472 q 169 487 204 479 q 114 504 133 494 q 72 528 94 514 q 36 565 49 543 q 19 613 24 586 q 21 626 18 619 q 28 636 24 632 q 40 642 33 640 q 58 637 50 643 q 69 621 67 631 q 88 582 72 599 q 121 556 103 565 q 173 538 139 546 q 229 526 207 529 q 296 515 251 522 q 351 508 332 511 q 403 497 369 504 q 455 483 436 490 q 499 465 474 476 q 540 438 525 453 q 567 403 554 424 q 586 357 581 382 q 576 331 589 340 z "},"":{"ha":1165,"x_min":15,"x_max":1139,"o":"m 543 96 q 560 88 553 96 q 568 70 568 81 q 560 53 568 60 q 543 46 553 46 q 278 120 400 46 q 87 322 157 194 q 17 601 17 450 q 58 817 17 714 q 170 994 100 919 q 338 1113 240 1068 q 543 1157 436 1157 q 560 1149 553 1157 q 568 1131 568 1142 q 560 1114 568 1121 q 543 1107 553 1107 q 304 1039 414 1107 q 131 855 194 971 q 67 601 67 739 q 131 347 67 464 q 304 163 194 231 q 543 96 414 96 m 613 1157 q 876 1083 754 1157 q 1068 880 997 1008 q 1139 601 1139 751 q 1068 322 1139 450 q 876 120 997 194 q 613 46 754 46 q 594 53 601 46 q 588 71 588 60 q 590 83 588 78 q 599 92 593 89 q 613 96 606 96 q 797 136 708 96 q 949 244 885 176 q 1050 405 1013 311 q 1088 601 1088 499 q 1050 797 1088 704 q 949 958 1013 890 q 797 1067 885 1026 q 613 1107 708 1107 q 594 1114 601 1107 q 588 1131 588 1121 q 594 1149 588 1142 q 613 1157 601 1157 m 832 485 q 730 347 799 399 q 579 296 661 296 q 382 390 464 296 q 300 617 300 485 q 382 844 300 750 q 579 939 464 939 q 742 878 669 939 q 843 718 815 817 q 841 699 846 708 q 826 688 836 690 q 808 690 817 685 q 794 704 799 694 q 712 838 771 788 q 579 889 653 889 q 417 809 485 889 q 350 617 350 729 q 417 426 350 506 q 579 346 485 346 q 701 389 644 346 q 786 503 758 432 q 799 517 790 513 q 818 517 808 521 q 832 503 828 513 q 832 485 836 494 z "},"":{"ha":663,"x_min":15,"x_max":635,"o":"m 347 258 l 622 53 q 632 35 631 46 q 626 18 633 25 q 607 7 619 7 q 592 13 599 7 l 290 238 q 290 240 290 239 q 290 240 290 240 q 288 241 289 240 q 285 243 286 242 q 285 247 285 244 q 285 249 285 249 q 282 258 282 254 q 285 267 282 261 q 285 270 285 268 q 286 274 285 272 q 288 274 286 274 q 289 275 289 275 q 290 276 289 275 q 290 278 290 278 l 592 504 q 610 508 600 510 q 627 499 621 507 q 632 480 633 490 q 622 464 631 469 l 347 258 m 82 258 l 357 53 q 367 35 365 46 q 361 18 368 25 q 342 7 354 7 q 326 13 333 7 l 25 238 q 25 240 25 239 q 24 240 25 240 q 22 241 24 240 q 20 243 21 242 q 19 247 19 244 q 18 249 19 249 q 17 258 17 254 q 18 267 17 261 q 19 270 19 268 q 21 274 19 272 q 22 274 21 274 q 24 275 24 275 q 24 276 24 275 q 25 278 25 278 l 326 504 q 345 508 335 510 q 362 499 356 507 q 367 480 368 490 q 357 464 365 469 l 82 258 z "},"":{"ha":1160,"x_min":25,"x_max":1149,"o":"m 719 1056 q 779 929 782 1001 q 771 911 779 918 q 779 892 781 903 q 724 779 778 826 q 722 778 722 779 q 721 778 722 778 q 738 767 733 775 l 854 556 q 856 536 858 546 q 844 521 853 526 q 832 518 839 518 q 810 532 817 518 l 694 742 q 692 758 690 749 q 515 718 622 718 q 428 724 474 718 q 419 728 424 725 l 419 547 q 412 529 419 536 q 394 522 404 522 q 376 529 383 522 q 368 547 368 536 l 368 1090 q 376 1108 368 1101 q 393 1115 383 1115 q 411 1108 403 1115 q 425 1118 417 1117 q 719 1056 617 1147 m 729 893 q 738 911 731 904 q 729 929 729 919 q 686 1018 731 979 q 433 1068 601 1093 q 419 1071 426 1067 l 419 769 q 435 774 426 775 q 690 818 611 750 q 729 893 729 850 m 553 274 q 570 266 563 274 q 578 248 578 258 q 570 231 578 238 q 553 224 563 224 q 288 298 410 224 q 97 500 167 372 q 26 779 26 628 q 68 994 26 892 q 180 1172 110 1097 q 348 1290 250 1246 q 553 1335 446 1335 q 570 1327 563 1335 q 578 1309 578 1319 q 570 1292 578 1299 q 553 1285 563 1285 q 314 1217 424 1285 q 140 1033 204 1149 q 76 779 76 917 q 140 525 76 642 q 314 341 204 408 q 553 274 424 274 m 622 1335 q 885 1260 764 1335 q 1078 1058 1007 1186 q 1149 778 1149 929 q 1078 500 1149 628 q 885 298 1007 372 q 622 224 764 224 q 603 231 611 224 q 596 248 596 238 q 603 266 596 258 q 622 274 611 274 q 806 314 718 274 q 958 422 894 354 q 1060 583 1022 489 q 1097 779 1097 676 q 1034 1032 1097 915 q 861 1217 971 1149 q 622 1285 751 1285 q 612 1287 617 1285 q 603 1292 607 1289 q 598 1299 600 1294 q 596 1310 596 1304 q 603 1327 596 1319 q 622 1335 611 1335 z "},"":{"ha":986,"x_min":14,"x_max":963,"o":"m 938 515 q 955 508 947 515 q 963 490 963 500 q 959 478 963 483 q 950 469 956 472 q 938 465 944 465 l 535 465 q 517 472 525 465 q 510 490 510 479 q 513 503 510 497 q 522 512 517 508 q 535 515 528 515 l 938 515 m 450 515 q 468 508 461 515 q 475 490 475 500 q 472 478 475 483 q 463 469 468 472 q 450 465 457 465 l 40 465 q 22 472 29 465 q 15 490 15 479 q 19 503 15 497 q 28 512 22 508 q 40 515 33 515 l 450 515 m 509 544 q 506 543 509 544 q 497 542 503 542 q 484 544 490 542 q 474 553 478 547 q 471 567 471 560 l 471 863 q 478 881 471 874 q 497 888 486 888 q 515 881 507 888 q 522 863 522 874 l 522 567 q 519 553 522 560 q 509 544 515 547 m 478 432 q 482 435 478 432 q 497 439 486 439 q 515 432 507 439 q 522 414 522 425 l 522 117 q 519 104 522 110 q 509 95 515 99 q 496 92 503 92 q 478 99 486 92 q 471 117 471 107 l 471 414 q 478 432 471 425 z "},"":{"ha":688,"x_min":43,"x_max":663,"o":"m 388 240 q 388 238 388 239 q 386 238 388 238 l 86 13 q 71 7 79 7 q 50 17 58 7 q 46 35 44 25 q 56 53 47 46 l 331 258 l 56 464 q 46 480 47 469 q 51 499 44 490 q 67 508 57 507 q 86 504 78 510 l 388 278 q 388 276 388 278 q 389 275 389 275 l 390 274 l 392 274 q 393 269 393 272 q 393 267 393 268 q 396 258 396 261 q 393 249 396 254 q 393 247 393 249 q 392 243 393 244 l 389 240 l 388 240 m 660 267 q 661 258 661 261 q 658 249 661 254 q 658 247 658 249 q 657 243 658 244 l 656 240 l 653 240 q 653 238 653 239 q 653 238 653 238 l 351 13 q 336 7 344 7 q 317 17 324 7 q 311 35 310 25 q 321 53 313 46 l 596 258 l 321 464 q 311 480 313 469 q 316 499 310 490 q 333 508 322 507 q 351 504 343 510 l 653 278 q 653 276 653 278 q 654 275 654 275 q 656 274 654 275 q 657 274 657 274 q 658 270 658 272 q 660 267 658 268 z "},"":{"ha":776,"x_min":15,"x_max":763,"o":"m 413 1001 q 409 997 413 1001 q 395 993 406 993 q 378 1001 385 993 q 371 1018 371 1008 l 371 1168 q 378 1185 371 1178 q 395 1193 385 1193 q 413 1185 406 1193 q 421 1168 421 1178 l 421 1018 q 413 1001 421 1008 m 749 400 q 727 237 763 317 q 615 99 692 157 q 363 10 499 10 q 228 38 290 10 q 24 394 43 119 q 29 412 22 404 q 47 420 36 419 q 65 415 57 421 q 74 397 72 408 q 249 83 92 153 q 416 64 324 49 q 585 138 508 79 q 681 256 650 189 q 699 392 711 322 q 703 410 697 401 q 720 421 710 419 q 739 416 731 422 q 749 400 747 410 m 51 444 q 26 463 32 444 q 44 546 17 503 q 103 617 71 589 q 204 694 136 644 q 270 744 247 726 q 324 790 293 761 q 365 841 354 818 q 372 885 376 864 q 375 903 369 894 q 391 915 381 913 q 410 911 401 917 q 421 896 418 906 q 419 842 428 869 q 395 794 410 815 q 349 744 381 774 q 296 699 317 715 q 234 653 275 683 q 172 606 193 624 q 121 563 150 589 q 81 515 92 536 q 75 475 71 494 q 72 456 78 465 q 57 444 67 447 q 51 444 54 444 z "},"":{"ha":219,"x_min":24,"x_max":207,"o":"m 174 946 q 187 942 181 946 q 197 933 193 939 q 200 921 200 928 q 192 903 200 911 q 174 896 185 896 l 50 896 q 33 903 40 896 q 26 919 26 910 q 25 921 25 921 q 25 924 25 924 q 26 949 25 935 q 28 1001 26 964 q 40 1074 31 1039 q 65 1147 50 1108 q 107 1214 79 1185 q 171 1256 135 1243 q 179 1257 175 1257 q 203 1240 197 1257 q 203 1222 207 1231 q 189 1208 199 1213 q 130 1163 154 1196 q 95 1085 106 1129 q 81 1008 85 1040 q 75 946 76 976 l 174 946 z "},"":{"ha":244,"x_min":32,"x_max":215,"o":"m 214 1225 q 215 1190 215 1211 q 207 1120 214 1169 q 186 1030 200 1071 q 142 949 172 989 q 68 893 111 908 q 60 892 64 892 q 36 908 42 892 q 37 927 32 918 q 51 940 42 936 q 93 967 74 949 q 124 1012 113 986 q 143 1063 135 1038 q 156 1117 151 1089 q 162 1165 160 1146 q 164 1203 164 1185 l 65 1203 q 47 1210 54 1203 q 40 1228 40 1218 q 47 1246 40 1239 q 65 1253 54 1253 l 189 1253 q 206 1246 199 1253 q 214 1229 213 1239 q 214 1228 214 1229 q 214 1225 214 1226 z "}}}
